<svg viewBox="0 0 936.02 883.57" 
    xmlns="http://www.w3.org/2000/svg" 
    xmlns:xlink="http://www.w3.org/1999/xlink">
    <filter id="a" color-interpolation-filters="sRGB" filterUnits="userSpaceOnUse" height="32766" width="194.64" x="64.44" y="-8636">
        <feFlood flood-color="#fff" result="bg"/>
        <feBlend in="SourceGraphic" in2="bg"/>
    </filter>
    <mask id="b" height="32766" maskUnits="userSpaceOnUse" width="194.64" x="64.44" y="-8636">
        <g filter="url(#a)"/>
    </mask>
    <linearGradient id="c" gradientTransform="matrix(-1 0 0 -1 -2674.9 514.43)" gradientUnits="userSpaceOnUse" x1="-2739.34" x2="-2933.98" y1="-358" y2="-358">
        <stop offset="0" stop-color="#fff"/>
        <stop offset="1"/>
    </linearGradient>
    <filter id="d" color-interpolation-filters="sRGB" filterUnits="userSpaceOnUse" height="22.29" width="194.64" x="64.44" y="861.28">
        <feFlood flood-color="#fff" result="bg"/>
        <feBlend in="SourceGraphic" in2="bg"/>
    </filter>
    <mask id="e" height="22.29" maskUnits="userSpaceOnUse" width="194.64" x="64.44" y="861.28">
        <g filter="url(#d)" mask="url(#b)">
            <path d="m100.56 861.31c-4.38-.35-29.2 2.74-33.34 3.89a5 5 0 0 0 -2.22 1.09c-1.24 1.24-.23 3.18 1.52 4s5.09 3.82 7 4.49c27.28 9.46 40.74 3.6 64.11 7.92 11.13 2.07 28.51-.22 40 0a163.53 163.53 0 0 0 19.37-1.18c20.23-2 39.18-2.49 58.69-8.8a6.09 6.09 0 0 0 2.51-1.3c1.65-1.68.68-4.75-1.29-6s-22.51-4.1-24.86-4.09c-56.72.32-74.8-.02-131.49-.02z" fill="url(#c)"/>
        </g>
    </mask>
    <linearGradient id="f" gradientTransform="matrix(-1 0 0 -1 -2674.9 514.43)" gradientUnits="userSpaceOnUse" x1="-2739.34" x2="-2933.98" y1="-358" y2="-358">
        <stop offset="0"/>
        <stop offset="1"/>
    </linearGradient>
    <path d="m781.85 661.6c42 0 79-7.88 101 25.21 11.84 17.8 14.35 34.71 15.15 57.19.21 6-2.08 22-7.34 34.24-3.69 8.62-3 10.15-9.81 18.59-15.17 18.8-38.77 19.42-60.91 19.41-41.75 0-82.51 0-121.83 0-185.3 0-367.48 2.79-555.06.32-18.19-.24-30.9-.14-48.75-4.17-7.87-1.77-16.81-6.85-23.72-11.81-49.52-35.58-26.34-119.81 8.42-132.02 15-5.27 36-6 51.26-5.3 25.05 1.21 51.62-.86 76.67-1 127.19-.67 242.71 2.27 364.71-.67 74.54-1.79 140.69.01 210.21.01z" fill="#6c99b9" opacity=".09"/>
    <g mask="url(#e)">
        <path d="m100.56 861.31c-4.38-.35-29.2 2.74-33.34 3.89a5 5 0 0 0 -2.22 1.09c-1.24 1.24-.23 3.18 1.52 4s5.09 3.82 7 4.49c27.28 9.46 40.74 3.6 64.11 7.92 11.13 2.07 28.51-.22 40 0a163.53 163.53 0 0 0 19.37-1.18c20.23-2 39.18-2.49 58.69-8.8a6.09 6.09 0 0 0 2.51-1.3c1.65-1.68.68-4.75-1.29-6s-22.51-4.1-24.86-4.09c-56.72.32-74.8-.02-131.49-.02z" fill="url(#f)" opacity=".13"/>
    </g>
    <path d="m468.39 624.89a70.1 70.1 0 0 0 29.71.71c.51-.1 1.09-.3 1.41-1.57a17.87 17.87 0 0 0 .28-3.82c.07-26.41 0-50.13-.55-76.56-.08-4.36-1.21-7.86-2.58-8-9.64-1.32-19.41-3.39-29-.75-1.32.36-2.31 3.83-2.29 8.07l.23 73.2a28.62 28.62 0 0 0 .4 5.83c.55 2.26 1.52 2.68 2.39 2.89z" fill="#e1e2e6"/>
    <path d="m400.68 624.89a70.1 70.1 0 0 0 29.71.71c.52-.1 1.09-.3 1.41-1.57a17.24 17.24 0 0 0 .28-3.82c.07-26.41 0-50.13-.54-76.56-.09-4.36-1.22-7.86-2.58-8-9.65-1.32-19.42-3.39-29-.75-1.31.36-2.3 3.83-2.29 8.07l.23 73.2a28.59 28.59 0 0 0 .42 5.89c.52 2.2 1.5 2.62 2.36 2.83z" fill="#e1e2e6"/>
    <path d="m333 624.89a70.1 70.1 0 0 0 29.71.71c.52-.1 1.09-.3 1.41-1.57a17.24 17.24 0 0 0 .28-3.82c.08-26.41 0-50.13-.54-76.56-.09-4.36-1.22-7.86-2.58-8-9.65-1.32-19.42-3.39-29-.75-1.31.36-2.3 3.83-2.29 8.07l.23 73.2a28.59 28.59 0 0 0 .42 5.89c.49 2.2 1.47 2.62 2.36 2.83z" fill="#e1e2e6"/>
    <path d="m265.26 624.89a70.15 70.15 0 0 0 29.72.71c.51-.1 1.09-.3 1.41-1.57a17.87 17.87 0 0 0 .28-3.82c.07-26.41 0-50.13-.55-76.56-.08-4.36-1.21-7.86-2.58-8-9.65-1.32-19.41-3.39-29-.75-1.32.36-2.31 3.83-2.3 8.07l.23 73.2a28.59 28.59 0 0 0 .42 5.89c.53 2.2 1.51 2.62 2.37 2.83z" fill="#e1e2e6"/>
    <path d="m197.56 624.89a70.1 70.1 0 0 0 29.71.71c.51-.1 1.09-.3 1.41-1.57a17.87 17.87 0 0 0 .28-3.82c.07-26.41 0-50.13-.55-76.56-.08-4.36-1.21-7.86-2.58-8-9.65-1.32-19.41-3.39-29-.75-1.32.36-2.31 3.83-2.29 8.07l.23 73.2a28.62 28.62 0 0 0 .41 5.89c.54 2.2 1.51 2.62 2.38 2.83z" fill="#e1e2e6"/>
    <path d="m160.4 523.12c-.23.29-.6.4-1.25.37-3.69-.17-7.42-1-11.11-1.34-3.87-.4-7.74-.75-11.61-1.1-7.64-.67-15.39-1.3-23-2-2.93-.28-3.07-1.1-2.75-5q.93-11.4 2.16-22.77c.45-4.15 1-10.13 1.39-14.64.06-.64.5-1.12 1-1.05 1.79.24 5.9.79 7.27.91 6.35.54 12.67 1.52 19 2.29 5.79.69 11.56.79 17.38 1.06 1.65.07 3.27.4 4.91.56 1.24.21 1.06.37.91 2.1-.12 1.47-.25 2.94-.37 4.41q-.73 8.49-1.59 17t-1.82 16.89a5.77 5.77 0 0 1 -.52 2.31z" fill="#e6eeef"/>
    <path d="m158.33 521.44-.66-.35c-2.77-1.48-5.6-2.83-8.34-4.42a26.28 26.28 0 0 1 -4.79-3.81l-.66-.65c-4-4.05-8.35-7.36-12.07-11.89-2-2.46-4-5-6.09-7.37-3.14-3.47-6.38-6.78-9-10.94-.42-.66-.91-1.24-1.34-1.89a4.72 4.72 0 0 1 -1-2.12 33.4 33.4 0 0 0 -.47 4.18l-.48 4.4c-.32 2.9-.64 5.8-.93 8.7q-.86 8.48-1.59 17a17.87 17.87 0 0 0 -.15 5.1 2.88 2.88 0 0 0 .24.7 1.38 1.38 0 0 0 1 .66c.37.06.73.21 1.11.26 1.07.15 2.14.31 3.23.36 5.82.26 11.59.36 17.38 1.06 6.33.76 12.65 1.74 19 2.29 1.37.11 5.23.56 7 .81.35 0 .69-.07.6-.6s-.71-.74-1.09-.94z" fill="#6c99b9" opacity=".09"/>
    <path d="m164.2 484.39a10.1 10.1 0 0 1 -1.21-.07c-3.68-.34-7.45-.75-11.15-1.11-3.87-.39-7.74-.76-11.62-1.14l-23-2.23c-2.94-.29-3.15-.39-3.17-.79a8.63 8.63 0 0 1 .15-2.27 11.57 11.57 0 0 0 .1-1.47 1.7 1.7 0 0 1 .86 0l7.3.74c6.35.61 12.71 1.27 19.06 1.91 5.81.58 11.55 1.09 17.35 1.63 1.64.15 3.28.33 4.92.49 1.25.13 1.08.13 1.09.31s0 .3 0 .44a12 12 0 0 1 -.42 3.37c0 .09.03.18-.26.19z" fill="#cddee0"/>
    <path d="m157.59 518a7.15 7.15 0 0 1 -1.9-.15l-5.57-.54-7.86-.77-8.78-.86-8.34-.82-6.54-.64-2.17-.21-.74-.08c-.27 0-.55 0-.71-.22s.12-.45.47-.4c1.21.15 2.44.24 3.65.36l6.54.64 8.17.8 8.55.84 7.67.75 5.52.54c.48 0 2.32 0 2.23.59-.01.09-.08.17-.19.17z" opacity=".13"/>
    <path d="m126.67 514.42-7.57-.75c-1.21-.11-2.44-.2-3.64-.35-.36-.05-.73 0-.48.4s.44.2.71.22l.74.07 10.19 1c.02-.2.03-.4.05-.59z" opacity=".42"/>
    <path d="m158.07 516.91a.81.81 0 0 0 -.38 0c-.06.45-.11.9-.15 1.36h.39z" fill="#4e6a7c"/>
    <path d="m115.35 512.89a.68.68 0 0 0 -.37 0c-.06.45-.12.9-.16 1.35h.4z" fill="#4e6a7c"/>
    <path d="m163.26 481.85a.66.66 0 0 0 -.28-.27.43.43 0 0 0 -.57.25.85.85 0 0 0 0 .68c.08.4.4.62.69.43a.87.87 0 0 0 .16-1.09z" fill="#6c99b9"/>
    <path d="m161.37 481.66a.82.82 0 0 0 -.29-.27.45.45 0 0 0 -.57.25.92.92 0 0 0 0 .69c.08.4.4.62.7.42a.89.89 0 0 0 .16-1.09z" fill="#6c99b9"/>
    <path d="m159.51 481.48a.66.66 0 0 0 -.28-.27.43.43 0 0 0 -.57.25.85.85 0 0 0 0 .68c.08.4.4.63.69.43a.87.87 0 0 0 .16-1.09z" fill="#6c99b9"/>
    <path d="m791.6 339a6.26 6.26 0 0 1 -6.6-5 8 8 0 0 1 3.43-7.88 9.51 9.51 0 0 1 12.78 2.37c1.68 2.47 2.23 5.95-.36 8-1.5 1.17-2.73 1.22-3.36 3s.14 5 .15 6.9c0 1.17-.17 14-.35 14l-4.45-.18q.36-10.29-.24-20.58a.82.82 0 0 0 -.13-.49c-.2-.2-.57-.14-.87-.14z" fill="#eeca2e"/>
    <path d="m793.28 336.7c-.23 0-.42-.19-.56-.38l-3.2-4.39a1.68 1.68 0 0 1 -.47-1.28c.17-.71 1.11-.86 1.85-.86h6.35q-1.75 3.24-3.53 6.47c-.1.21-.23.41-.44.44z" fill="#aa6a64"/>
    <path d="m790.55 357.54a6.8 6.8 0 0 0 -2.63 8.34l16-.35c.35-2.32.55-5.07-1.18-6.66a6.71 6.71 0 0 0 -2.52-1.29c-3.22-1.05-6.81-1.73-9.67-.04z" fill="#98b99d"/>
    <path d="m761.39 339.85a6.24 6.24 0 0 0 6.6-5 8 8 0 0 0 -3.43-7.88 9.51 9.51 0 0 0 -12.78 2.38c-1.68 2.47-2.23 5.95.35 8 1.51 1.18 2.74 1.23 3.36 3s-.13 5-.14 6.89c0 1.17.16 14 .34 14l4.46-.18q-.36-10.29.24-20.58a.85.85 0 0 1 .13-.5c.2-.22.57-.17.87-.13z" fill="#eeca2e"/>
    <path d="m759.7 337.52c.24 0 .43-.18.57-.37l3.2-4.39a1.64 1.64 0 0 0 .46-1.28c-.16-.72-1.1-.86-1.84-.86h-6.36l3.54 6.47c.1.2.23.41.43.43z" fill="#aa6a64"/>
    <path d="m762.44 358.37a6.8 6.8 0 0 1 2.63 8.34l-16-.35c-.35-2.33-.56-5.07 1.18-6.67a6.76 6.76 0 0 1 2.52-1.28c3.17-1.05 6.81-1.74 9.67-.04z" fill="#98b99d"/>
    <path d="m696.09 339a6.28 6.28 0 0 1 -6.61-5 8 8 0 0 1 3.44-7.88 9.51 9.51 0 0 1 12.78 2.37c1.68 2.47 2.23 5.95-.36 8-1.5 1.17-2.73 1.22-3.36 3s.14 5 .15 6.9c0 1.17-.17 14-.35 14l-4.45-.18q.36-10.29-.24-20.58a.83.83 0 0 0 -.14-.49c-.19-.2-.56-.14-.86-.14z" fill="#eeca2e"/>
    <path d="m697.77 336.7c-.23 0-.42-.19-.57-.38l-3.2-4.39a1.71 1.71 0 0 1 -.46-1.28c.17-.71 1.11-.86 1.84-.86h6.36l-3.53 6.47c-.1.21-.21.41-.44.44z" fill="#aa6a64"/>
    <path d="m695 357.54a6.81 6.81 0 0 0 -2.64 8.34l16-.35c.34-2.32.55-5.07-1.18-6.66a6.71 6.71 0 0 0 -2.52-1.29c-3.13-1.05-6.77-1.73-9.66-.04z" fill="#98b99d"/>
    <path d="m665.88 339.85a6.26 6.26 0 0 0 6.6-5 8 8 0 0 0 -3.43-7.88 9.53 9.53 0 0 0 -12.79 2.38c-1.67 2.47-2.22 5.95.36 8 1.51 1.18 2.74 1.23 3.36 3s-.13 5-.14 6.89c0 1.17.16 14 .34 14l4.46-.18q-.37-10.29.24-20.58a.85.85 0 0 1 .13-.5c.19-.22.56-.17.87-.13z" fill="#eeca2e"/>
    <path d="m664.19 337.52c.24 0 .43-.18.57-.37l3.2-4.39a1.64 1.64 0 0 0 .46-1.28c-.16-.72-1.1-.86-1.84-.86h-6.36l3.54 6.47c.1.2.24.41.43.43z" fill="#aa6a64"/>
    <path d="m666.92 358.37a6.79 6.79 0 0 1 2.64 8.34l-16-.35c-.35-2.33-.56-5.07 1.17-6.67a6.8 6.8 0 0 1 2.53-1.28c3.17-1.05 6.81-1.74 9.66-.04z" fill="#98b99d"/>
    <path d="m589 626.61a2528.1 2528.1 0 0 0 274-.82c4.77-.27 10.09-.78 13.14-3.75 2.48-2.42 2.75-5.79 2.89-8.92 2.87-61.45 4-118.87 1.53-180.31-.41-10.14-10.55-18.73-23.11-18.52-99.36 1.66-163-.66-267.65 2.87-12.21.41-21.59 9.1-21.82 19l-3.95 170.32c-.11 4.73-.09 9.84 3.34 13.67 4.71 5.16 13.7 6.05 21.63 6.46z" fill="#97a8b2"/>
    <path d="m848.84 466.09c0-4.63.22-54.85.17-54.87-1.56-.83-4.71-.05-6.28-.88-.16-.09-.34-.15-.47.32a9.24 9.24 0 0 0 -.16 2c-.18 79.15-.51 141.33-.05 212.17a18.56 18.56 0 0 0 .28 3.87c.17.62.4.7.62.75 1.38.36 3.27 1.12 4.61-.71s1.18-7.19 1.14-12.93c-.09-16.67.17-33.76.14-50.43-.08-33.15-.17-66.17 0-99.29z" fill="#fff"/>
    <path d="m799.9 411.5c-.17-.62-.41-.7-.62-.76-1.39-.35-3.27-1.12-4.62.72s-1.17 7.19-1.14 12.93c.1 16.67-.17 33.76-.13 50.43.07 33.12.16 66.15 0 99.27 0 4.63-.22 54.85-.18 54.86 1.57.83 4.72.06 6.28.89.17.09.35.15.47-.32a8.63 8.63 0 0 0 .17-2c.18-79.16.5-141.33 0-212.17a18.56 18.56 0 0 0 -.23-3.85z" fill="#fff"/>
    <path d="m751.27 411.22c-1.57-.83-4.72-.05-6.29-.88-.16-.09-.34-.15-.47.32a9.24 9.24 0 0 0 -.16 2c-.18 79.15-.5 141.33-.05 212.17a18.56 18.56 0 0 0 .28 3.87c.17.62.4.7.62.75 1.38.36 3.27 1.12 4.61-.71s1.18-7.19 1.15-12.93c-.1-16.67.17-33.76.13-50.43-.07-33.13-.16-66.15 0-99.27.02-4.65.22-54.87.18-54.89z" fill="#fff"/>
    <path d="m706.26 411.5c-.17-.62-.4-.7-.62-.76-1.38-.35-3.27-1.12-4.61.72s-1.18 7.19-1.14 12.93c.09 16.67-.17 33.76-.14 50.43.08 33.12.17 66.15 0 99.27 0 4.63-.22 54.85-.18 54.86 1.57.83 4.72.06 6.29.89.16.09.34.15.47-.32a9.3 9.3 0 0 0 .16-2c.18-79.16.51-141.33 0-212.17a18.56 18.56 0 0 0 -.23-3.85z" fill="#fff"/>
    <path d="m659 411.22c-1.57-.83-4.72-.05-6.28-.88-.17-.09-.35-.15-.47.32a8.57 8.57 0 0 0 -.17 2c-.18 79.15-.5 141.33 0 212.17a18.56 18.56 0 0 0 .28 3.87c.17.62.41.7.62.75 1.39.36 3.27 1.12 4.62-.71s1.17-7.19 1.14-12.93c-.1-16.67.17-33.76.13-50.43-.07-33.13-.16-66.15 0-99.27-.06-4.65.13-54.87.13-54.89z" fill="#fff"/>
    <path d="m605.86 411.5c-.17-.62-.4-.7-.62-.76-1.38-.35-3.27-1.12-4.61.72s-1.18 7.19-1.15 12.93c.1 16.67-.17 33.76-.13 50.43.07 33.12.16 66.15 0 99.27 0 4.63-.22 54.85-.18 54.86 1.57.83 4.72.06 6.29.89.16.09.34.15.47-.32a9.3 9.3 0 0 0 .16-2c.18-79.16.5-141.33 0-212.17a18.56 18.56 0 0 0 -.23-3.85z" fill="#fff"/>
    <path d="m630.12 463.56c-.12-.36-.29-.41-.45-.44-1-.21-2.4-.65-3.39.41s-.86 4.19-.84 7.54c.07 9.7-.12 19.65-.09 29.35 0 19.29.11 38.52 0 57.8 0 2.69-.17 31.93-.14 31.94 1.15.48 3.47 0 4.62.52.12.05.25.08.34-.19a4.23 4.23 0 0 0 .12-1.15c.14-46.09.37-82.29 0-123.53a8.55 8.55 0 0 0 -.17-2.25z" fill="#fff"/>
    <path d="m681.42 463.56c-.12-.36-.29-.41-.45-.44-1-.21-2.4-.65-3.39.41s-.86 4.19-.84 7.54c.07 9.7-.12 19.65-.1 29.35.06 19.29.12 38.52 0 57.8 0 2.69-.16 31.93-.13 31.94 1.15.48 3.47 0 4.62.52.11.05.25.08.34-.19a4.23 4.23 0 0 0 .12-1.15c.13-46.09.37-82.29 0-123.53a8.55 8.55 0 0 0 -.17-2.25z" fill="#fff"/>
    <path d="m727.78 463.56c-.12-.36-.29-.41-.45-.44-1-.21-2.4-.65-3.39.41s-.86 4.19-.84 7.54c.08 9.7-.12 19.65-.09 29.35 0 19.29.12 38.52 0 57.8 0 2.69-.17 31.93-.13 31.94 1.14.48 3.46 0 4.61.52.12.05.25.08.34-.19a4.23 4.23 0 0 0 .12-1.15c.14-46.09.37-82.29 0-123.53a8.55 8.55 0 0 0 -.17-2.25z" fill="#fff"/>
    <path d="m773.72 463.56c-.13-.36-.3-.41-.46-.44-1-.21-2.4-.65-3.38.41s-.87 4.19-.84 7.54c.07 9.7-.13 19.65-.1 29.35 0 19.29.12 38.52 0 57.8 0 2.69-.16 31.93-.13 31.94 1.15.48 3.46 0 4.61.52.12.05.25.08.35-.19a4.23 4.23 0 0 0 .12-1.15c.13-46.09.37-82.29 0-123.53a8.6 8.6 0 0 0 -.17-2.25z" fill="#fff"/>
    <path d="m824.23 463.56c-.13-.36-.3-.41-.46-.44-1-.21-2.4-.65-3.38.41s-.87 4.19-.84 7.54c.07 9.7-.13 19.65-.1 29.35 0 19.29.12 38.52 0 57.8 0 2.69-.16 31.93-.13 31.94 1.15.48 3.46 0 4.61.52.12.05.25.08.34-.19a4.19 4.19 0 0 0 .13-1.15c.13-46.09.37-82.29 0-123.53a8.6 8.6 0 0 0 -.17-2.25z" fill="#fff"/>
    <path d="m72.72 652c268 .15 537.35-.33 805.71-1.43 14-.05 29.69-.14 38.79-.53 7.37-.31 15.88.25 16.16-.48 4.25-11.41 2.51-15.87.68-23.7-.38-1.63-30.4-2.23-67.31-2.2-261.32.14-523.42.87-784.15 2.16-35.84.18-81.35-.55-82.37.68l-.06 23.14c-.49.59-.59 1.23 9.36 1.69 13.47.67 39.87.67 63.19.67z" fill="#2f3f47"/>
    <path d="m909 746.15c-.8-26.28-3.38-46-15.52-66.81-22.57-38.63-60.48-29.43-103.48-29.43-71.27 0-139.08-2.1-215.49 0-125.06 3.43-243.49 0-373.86.78-25.68.15-52.92 2.56-78.6 1.16-15.69-.86-37.17 0-52.54 6.18-35.64 14.26-59.4 112.63-8.66 154.14 7.04 5.83 16.2 11.73 24.27 13.83 18.3 4.7 31.33 4.59 50 4.87 192.29 2.87 379-.38 569-.38h124.89c22.7 0 46.89-.71 62.44-22.66 7-9.86 6.27-11.64 10.06-21.7 5.34-14.31 7.69-33.01 7.49-39.98zm-18.35 32.12c-3.69 8.62-3 10.15-9.81 18.59-15.17 18.8-38.77 19.42-60.91 19.41-41.75 0-82.51 0-121.83 0-185.3 0-367.48 2.79-555.06.32-18.19-.24-30.9-.14-48.75-4.17-7.87-1.77-16.81-6.85-23.72-11.81-49.51-35.61-26.33-119.84 8.43-132.05 15-5.27 36-6 51.26-5.3 25.05 1.21 51.62-.86 76.67-1 127.19-.67 242.71 2.27 364.71-.67 74.54-1.8 140.69 0 210.21 0 42 0 79-7.88 101 25.21 11.84 17.81 14.35 34.72 15.15 57.2.19 6-2.1 22-7.36 34.27z" fill="#a4b7c2"/>
    <path d="m164.81 676.17c-22.94-5.72-48.36-4.23-68.68 7.85s-34.31 35.79-31.28 59.23c2.39 18.48 14.47 34.4 28.58 46.57 5.62 4.85 11.73 9.31 18.72 11.81a50 50 0 0 0 19.26 2.46 72.51 72.51 0 0 0 58.7-36.57c11.09-20 8.06-38.92 5.27-60.39-2.46-18.89-11.26-26.13-30.57-30.96z" fill="#2f3f47"/>
    <path d="m94 727.16c-1.44 4.24-.1 12.8-1.54 17.05a.86.86 0 0 0 .56 1.27 10.08 10.08 0 0 0 3.43.45c137.31.49 245.17 1.37 368.05.13 2.44 0 5.2-.1 6.71-.76a1.9 1.9 0 0 0 1.31-1.68c.62-3.76 1.94-8.87-1.24-12.52-3.32-3.81-12.47-3.19-22.44-3.1-28.91.27-58.55-.46-87.47-.36-57.46.2-114.75.44-172.2 0-8.03-.06-95.17-.64-95.17-.48z" fill="#fff"/>
    <path d="m124.87 777c2.76.3 8.32 0 11.08.32a1.1 1.1 0 0 0 .82-.11.91.91 0 0 0 .29-.73c.32-29.15.89-52 .09-78.14a1.78 1.78 0 0 0 -.49-1.43 2 2 0 0 0 -1.09-.27c-2.44-.13-5.76-.42-8.13.26s-2.08 2.65-2 4.76c.17 6.14-.3 12.43-.23 18.57.13 12.2.28 24.37 0 36.56-.06 1.72-.41 20.21-.34 20.21z" fill="#fff"/>
    <path d="m217.18 777c2.76.3 8.32 0 11.08.32a1.1 1.1 0 0 0 .82-.11.91.91 0 0 0 .29-.73c.32-29.15.89-52 .09-78.14a1.78 1.78 0 0 0 -.49-1.43 2 2 0 0 0 -1.09-.27c-2.44-.13-5.76-.42-8.13.26s-2.08 2.65-2 4.76c.17 6.14-.3 12.43-.23 18.57.13 12.2.28 24.37 0 36.56-.06 1.72-.41 20.21-.34 20.21z" fill="#fff"/>
    <path d="m257.5 777c2.76.3 8.32 0 11.08.32a1.1 1.1 0 0 0 .82-.11 1 1 0 0 0 .3-.73c.31-29.15.88-52 .08-78.14a1.78 1.78 0 0 0 -.49-1.43 2 2 0 0 0 -1.09-.27c-2.44-.13-5.76-.42-8.13.26s-2.08 2.65-2 4.76c.17 6.14-.3 12.43-.23 18.57.13 12.2.28 24.37 0 36.56-.06 1.72-.41 20.21-.34 20.21z" fill="#fff"/>
    <path d="m295.52 777c2.76.3 8.31 0 11.07.32a1.11 1.11 0 0 0 .83-.11.94.94 0 0 0 .29-.73c.32-29.15.89-52 .09-78.14a1.78 1.78 0 0 0 -.5-1.43 2 2 0 0 0 -1.09-.27c-2.44-.13-5.76-.42-8.13.26s-2.07 2.65-2 4.76c.17 6.14-.3 12.43-.24 18.57.13 12.2.29 24.37 0 36.56-.05 1.72-.4 20.21-.32 20.21z" fill="#fff"/>
    <path d="m338.53 777c2.76.3 8.32 0 11.07.32a1.11 1.11 0 0 0 .83-.11.91.91 0 0 0 .29-.73c.32-29.15.89-52 .09-78.14a1.81 1.81 0 0 0 -.49-1.43 2 2 0 0 0 -1.1-.27c-2.44-.13-5.76-.42-8.13.26s-2.07 2.65-2 4.76c.17 6.14-.3 12.43-.24 18.57.13 12.2.29 24.37 0 36.56-.04 1.72-.39 20.21-.32 20.21z" fill="#fff"/>
    <path d="m376.54 777c2.76.3 8.32 0 11.08.32a1.1 1.1 0 0 0 .82-.11 1 1 0 0 0 .3-.73c.31-29.15.88-52 .08-78.14a1.75 1.75 0 0 0 -.49-1.43 2 2 0 0 0 -1.09-.27c-2.44-.13-5.76-.42-8.13.26s-2.07 2.65-2 4.76c.17 6.14-.3 12.43-.23 18.57.13 12.2.28 24.37 0 36.56-.06 1.72-.41 20.21-.34 20.21z" fill="#fff"/>
    <path d="m793.27 718.69c-.22-11.64.57-22-.43-33.64a5.81 5.81 0 0 0 -.55-2.38c-1-1.78-5.11-2-7-2-15 0-23.91-1-36.74-.24-3.18.18-6.35-.59-9.5-.09-2.18.35-7.35.47-9 2.16-1.34 1.39-2.17 7-2.12 9q.12 5.32.28 10.63c.25 8-.49 16-.09 24a8.29 8.29 0 0 0 .33 2.23 2.7 2.7 0 0 0 .24.55 3.21 3.21 0 0 0 .19.31 3.43 3.43 0 0 0 1.49 1.12l.24.09a4 4 0 0 0 .46.14 11 11 0 0 0 2.55.27h2.65c12.9.15 26 .66 38.88 0 1.85-.1 3.83-.15 5.8-.29a29.88 29.88 0 0 0 7.2-1.27 7.71 7.71 0 0 0 3.46-2.08 4.4 4.4 0 0 0 1-2.12 22.38 22.38 0 0 0 .66-6.39z" fill="#2f3f47"/>
    <path d="m731.19 724.17a5.5 5.5 0 0 0 .52 2.48c.86 1.51 3.28 1.08 4.93 1.09 12.46.08 25.19.64 37.62 0 3.78-.2 7.7.42 11.3-.79a6.9 6.9 0 0 0 3.13-1.85c1.4-1.62 1.58-5.35 1.54-7.55-.2-10.38.53-19.45-.37-29.8a5.23 5.23 0 0 0 -.49-2.12c-.9-1.58-4.63-1.77-6.36-1.77-13.57 0-21.66-1.06-33.29-.4-2.87.16-5.75-.52-8.6-.07-2 .31-6.66.42-8.15 1.93-1.22 1.24-2 6.24-1.93 8q.11 4.74.25 9.47c.22 7.13-.46 14.26-.1 21.38z" fill="#fff"/>
    <path d="m793.27 780.17c-.22-11.64.57-22-.43-33.64a5.77 5.77 0 0 0 -.55-2.38c-1-1.78-5.11-2-7-2-15 0-23.91-1-36.74-.25-3.18.18-6.35-.58-9.5-.08-2.18.34-7.35.46-9 2.16-1.34 1.39-2.17 7-2.12 9 .08 3.54.17 7.09.28 10.63.25 8-.49 16-.09 24a8.16 8.16 0 0 0 .33 2.22 2.78 2.78 0 0 0 .24.56 2.2 2.2 0 0 0 .19.3 3.38 3.38 0 0 0 1.49 1.13l.24.09.46.14a11 11 0 0 0 2.55.27h2.65c12.9.16 26 .67 38.88 0 1.85-.1 3.83-.15 5.8-.3a29.4 29.4 0 0 0 7.2-1.26 7.71 7.71 0 0 0 3.46-2.08 4.4 4.4 0 0 0 1-2.12 22.41 22.41 0 0 0 .66-6.39z" fill="#2f3f47"/>
    <path d="m731.19 785.64a5.44 5.44 0 0 0 .52 2.48c.86 1.51 3.28 1.09 4.93 1.1 12.46.08 25.19.64 37.62 0 3.78-.2 7.7.43 11.3-.78a6.92 6.92 0 0 0 3.13-1.86c1.4-1.61 1.58-5.34 1.54-7.55-.2-10.37.53-19.45-.37-29.79a5.23 5.23 0 0 0 -.49-2.12c-.9-1.58-4.63-1.77-6.36-1.78-13.57 0-21.66-1.05-33.29-.39-2.87.16-5.75-.52-8.6-.08-2 .32-6.66.42-8.15 1.94-1.22 1.24-2 6.24-1.93 8q.11 4.74.25 9.48c.22 7.11-.46 14.23-.1 21.35z" fill="#fff"/>
    <path d="m113.54 756.74c-7.11-4.63-14.05-11.31-14.41-19.78-.33-8 5.17-14.82 10.49-20.74 2.22-2.47 4.5-5 7.39-6.61 4-2.3 8.83-2.73 13.46-2.87 5.08-.14 10.35 0 14.95 2.19a23.89 23.89 0 0 1 9.7 9 33.22 33.22 0 0 1 2.44 30.6 22.8 22.8 0 0 1 -6.81 9.16c-10.45 7.9-26.91 5.75-37.21-.95z" fill="#97a8b2"/>
    <path d="m702.82 701.86a6.24 6.24 0 0 0 .12 3.6 6.75 6.75 0 0 0 2.25 4.06 4.37 4.37 0 0 0 3.44.57 6.87 6.87 0 0 0 3.1-1.73 6.08 6.08 0 0 0 1.45-1.89 6.22 6.22 0 0 0 .52-2.13c.2-2.37-.71-5.57-3.51-5.68-2.51-.09-6.39.5-7.37 3.2z" fill="#527597"/>
    <path d="m703.73 702.29a5.12 5.12 0 0 0 .09 3 5.57 5.57 0 0 0 1.87 3.37 3.64 3.64 0 0 0 2.86.48 5.8 5.8 0 0 0 2.58-1.44 5.09 5.09 0 0 0 1.2-1.57 5.47 5.47 0 0 0 .44-1.78c.17-2-.6-4.63-2.92-4.71-2.09-.08-5.31.41-6.12 2.65z" fill="#ffbe4a"/>
    <path d="m705.74 715.47a4.65 4.65 0 0 0 -2 1.66 5 5 0 0 0 -.64 2.27c-.19 2.42.68 5.17 2.87 6.22a6.34 6.34 0 0 0 3 .5 5.49 5.49 0 0 0 2.9-.79 4.47 4.47 0 0 0 1.79-3.48c.1-2.06-.86-5.16-2.51-6.54-1.42-1.18-3.92-.53-5.41.16z" fill="#527597"/>
    <path d="m704.13 735a7.16 7.16 0 0 0 -1.11 5.93 5.37 5.37 0 0 0 .82 2.06 5.57 5.57 0 0 0 2.72 1.84c2 .7 4.41.74 5.82-.79a5.94 5.94 0 0 0 1.26-2.86 7.26 7.26 0 0 0 .12-3c-.87-4.18-6.63-6.94-9.63-3.18z" fill="#527597"/>
    <path d="m704.09 754a5.74 5.74 0 0 0 -1.11 5.43 5.43 5.43 0 0 0 3.2 3.45 4.59 4.59 0 0 0 4.57-.82 7 7 0 0 0 1.86-4.51 5.07 5.07 0 0 0 -.48-3.33c-1.76-2.78-6.05-2.5-8.04-.22z" fill="#527597"/>
    <path d="m702.55 772.22a6.15 6.15 0 0 0 1.65 5 6.27 6.27 0 0 0 2.73 2.06 4.79 4.79 0 0 0 5.57-2.64c1.06-2.3.2-6.6-2.27-7.82-2.71-1.33-7.01.39-7.68 3.4z" fill="#527597"/>
    <path d="m708.53 715.58a2.86 2.86 0 0 1 1.13.08 3.84 3.84 0 0 1 .88.5 5.36 5.36 0 0 1 1.08.93 5.17 5.17 0 0 1 .87 2.84 9.75 9.75 0 0 1 0 2.29 2.43 2.43 0 0 1 -.35 1 3 3 0 0 1 -.74.72 5.22 5.22 0 0 1 -1.79.94 6.17 6.17 0 0 1 -1.49.13 3.73 3.73 0 0 1 -1.37-.15 3.63 3.63 0 0 1 -1.33-1 4.59 4.59 0 0 1 -.69-.85 3.76 3.76 0 0 1 -.38-1.08 7.58 7.58 0 0 1 .22-4 2.93 2.93 0 0 1 1.81-1.93 6.18 6.18 0 0 1 2.15-.42z" fill="#ffbe4a"/>
    <path d="m704 737.53a4.07 4.07 0 0 1 1.42-2.56 4 4 0 0 1 2.45-.78 6.57 6.57 0 0 1 2.54.6 3 3 0 0 1 2.07 2.46 8.51 8.51 0 0 1 -.21 4.45 3.65 3.65 0 0 1 -1.4 2 3.47 3.47 0 0 1 -1.33.43 5.8 5.8 0 0 1 -1.95 0 4.87 4.87 0 0 1 -2.74-1.68 3.63 3.63 0 0 1 -.78-1.36 5.9 5.9 0 0 1 -.06-1.19 9.4 9.4 0 0 1 -.01-2.37z" fill="#ffbe4a"/>
    <path d="m704 755.92a4.79 4.79 0 0 1 1.68-1.81 4.68 4.68 0 0 1 2.92-.78 3.54 3.54 0 0 1 2.59 1.49 4 4 0 0 1 .58 2.22 8.55 8.55 0 0 1 -.41 2.29 3.81 3.81 0 0 1 -1.54 2.38 3.38 3.38 0 0 1 -1.36.38 4.46 4.46 0 0 1 -2.75-.43 5.38 5.38 0 0 1 -2-2.69 4 4 0 0 1 .29-3.05z" fill="#ffbe4a"/>
    <path d="m704.4 771a5.12 5.12 0 0 1 3.79-1.71 3 3 0 0 1 1.53.29 5.43 5.43 0 0 1 1.7 2.25 5.09 5.09 0 0 1 .42.8 2.76 2.76 0 0 1 .13.95 7.19 7.19 0 0 1 -.54 2.7 3.81 3.81 0 0 1 -.72 1.17 3.22 3.22 0 0 1 -1.85.93 5.23 5.23 0 0 1 -2.08-.16 3.56 3.56 0 0 1 -1.26-.55 6 6 0 0 1 -1.71-2.41 4.57 4.57 0 0 1 -.22-2.66 3.86 3.86 0 0 1 .81-1.6z" fill="#ffbe4a"/>
    <path d="m695 776.29a6.27 6.27 0 0 0 -.12-3.61 6.69 6.69 0 0 0 -2.24-4 4.44 4.44 0 0 0 -3.45-.58 7 7 0 0 0 -3.1 1.74 5.51 5.51 0 0 0 -2 4c-.2 2.37.72 5.57 3.51 5.67 2.55.06 6.4-.51 7.4-3.22z" fill="#527597"/>
    <path d="m694.1 775.85a5.18 5.18 0 0 0 -.1-3 5.54 5.54 0 0 0 -1.87-3.37 3.63 3.63 0 0 0 -2.86-.48 5.76 5.76 0 0 0 -2.58 1.44 5.25 5.25 0 0 0 -1.2 1.57 5.11 5.11 0 0 0 -.43 1.77c-.17 2 .59 4.63 2.91 4.72 2.09.08 5.31-.4 6.13-2.65z" fill="#ffbe4a"/>
    <path d="m692.08 762.68a4.69 4.69 0 0 0 2-1.66 5.12 5.12 0 0 0 .64-2.27c.19-2.42-.69-5.17-2.87-6.22a6.28 6.28 0 0 0 -3-.5 5.52 5.52 0 0 0 -2.9.79 4.44 4.44 0 0 0 -1.78 3.48c-.11 2.06.86 5.16 2.5 6.54 1.42 1.16 3.93.53 5.41-.16z" fill="#527597"/>
    <path d="m693.69 743.18a7.16 7.16 0 0 0 1.12-5.93 4.72 4.72 0 0 0 -3.55-3.89c-2-.7-4.41-.74-5.82.79a5.89 5.89 0 0 0 -1.26 2.86 7.38 7.38 0 0 0 -.12 3c.87 4.13 6.63 6.9 9.63 3.17z" fill="#527597"/>
    <path d="m693.73 724.18a5.72 5.72 0 0 0 1.11-5.42 5.43 5.43 0 0 0 -3.2-3.46 4.57 4.57 0 0 0 -4.57.83 7 7 0 0 0 -1.86 4.5 5.12 5.12 0 0 0 .48 3.33c1.76 2.74 6.05 2.46 8.04.22z" fill="#527597"/>
    <path d="m695.27 705.93a6.1 6.1 0 0 0 -1.65-5 6.21 6.21 0 0 0 -2.73-2.06 4.77 4.77 0 0 0 -5.57 2.64c-1.05 2.3-.2 6.59 2.27 7.82 2.71 1.33 7.01-.39 7.68-3.4z" fill="#527597"/>
    <path d="m689.29 762.57a2.86 2.86 0 0 1 -1.13-.09 3.22 3.22 0 0 1 -.88-.5 4 4 0 0 1 -1.95-3.76 9.84 9.84 0 0 1 0-2.3 2.64 2.64 0 0 1 .35-1 3.13 3.13 0 0 1 .74-.71 5.42 5.42 0 0 1 1.79-1 6.77 6.77 0 0 1 1.49-.13 4.18 4.18 0 0 1 1.37.15 3.6 3.6 0 0 1 1.33 1 4 4 0 0 1 .69.85 3.67 3.67 0 0 1 .39 1.08 7.59 7.59 0 0 1 -.23 4 2.91 2.91 0 0 1 -1.8 1.93 6.29 6.29 0 0 1 -2.16.48z" fill="#ffbe4a"/>
    <path d="m693.81 740.62a4.12 4.12 0 0 1 -1.42 2.55 3.93 3.93 0 0 1 -2.46.79 6.4 6.4 0 0 1 -2.54-.61 2.93 2.93 0 0 1 -2.06-2.45 8.4 8.4 0 0 1 .21-4.45 3.6 3.6 0 0 1 1.39-2 3.45 3.45 0 0 1 1.33-.42 5.55 5.55 0 0 1 2 0 4.93 4.93 0 0 1 2.75 1.68 3.75 3.75 0 0 1 .77 1.36 5.8 5.8 0 0 1 .06 1.18 10 10 0 0 1 -.03 2.37z" fill="#ffbe4a"/>
    <path d="m693.81 722.22a4.74 4.74 0 0 1 -1.68 1.82 4.6 4.6 0 0 1 -2.92.77 3.49 3.49 0 0 1 -2.58-1.48 3.94 3.94 0 0 1 -.59-2.22 8.12 8.12 0 0 1 .42-2.29 3.89 3.89 0 0 1 1.53-2.39 3.58 3.58 0 0 1 1.37-.37 4.51 4.51 0 0 1 2.74.42 5.41 5.41 0 0 1 2 2.69 4 4 0 0 1 -.29 3.05z" fill="#ffbe4a"/>
    <path d="m693.43 707.18a5.18 5.18 0 0 1 -3.8 1.71 3.08 3.08 0 0 1 -1.53-.29 5.44 5.44 0 0 1 -1.69-2.26 4.34 4.34 0 0 1 -.43-.79 2.76 2.76 0 0 1 -.13-.95 7.11 7.11 0 0 1 .54-2.7 4.2 4.2 0 0 1 .72-1.18 3.24 3.24 0 0 1 1.85-.92 5.1 5.1 0 0 1 2.09.15 3.61 3.61 0 0 1 1.25.56 5.94 5.94 0 0 1 1.71 2.41 4.4 4.4 0 0 1 .22 2.66 4 4 0 0 1 -.8 1.6z" fill="#ffbe4a"/>
    <path d="m674.66 776.29a6.27 6.27 0 0 0 -.12-3.61 6.69 6.69 0 0 0 -2.24-4 4.44 4.44 0 0 0 -3.45-.58 7 7 0 0 0 -3.1 1.74 5.51 5.51 0 0 0 -2 4c-.2 2.37.71 5.57 3.51 5.67 2.54.06 6.42-.51 7.4-3.22z" fill="#527597"/>
    <path d="m673.76 775.85a5.18 5.18 0 0 0 -.1-3 5.54 5.54 0 0 0 -1.87-3.37 3.63 3.63 0 0 0 -2.86-.48 5.76 5.76 0 0 0 -2.58 1.44 5.25 5.25 0 0 0 -1.2 1.57 5.11 5.11 0 0 0 -.43 1.77c-.17 2 .59 4.63 2.91 4.72 2.09.08 5.31-.4 6.13-2.65z" fill="#ffbe4a"/>
    <path d="m671.74 762.68a4.69 4.69 0 0 0 2-1.66 5.26 5.26 0 0 0 .64-2.27c.19-2.42-.69-5.17-2.88-6.22a6.22 6.22 0 0 0 -3-.5 5.52 5.52 0 0 0 -2.9.79 4.41 4.41 0 0 0 -1.78 3.48c-.11 2.06.86 5.16 2.5 6.54 1.43 1.16 3.94.53 5.42-.16z" fill="#527597"/>
    <path d="m673.35 743.18a7.12 7.12 0 0 0 1.11-5.93 5.24 5.24 0 0 0 -.82-2 5.44 5.44 0 0 0 -2.72-1.84c-1.95-.7-4.41-.74-5.82.79a5.89 5.89 0 0 0 -1.26 2.86 7.38 7.38 0 0 0 -.12 3c.87 4.08 6.63 6.85 9.63 3.12z" fill="#527597"/>
    <path d="m673.39 724.18a5.72 5.72 0 0 0 1.11-5.42 5.43 5.43 0 0 0 -3.2-3.46 4.57 4.57 0 0 0 -4.57.83 7 7 0 0 0 -1.86 4.5 5.12 5.12 0 0 0 .48 3.33c1.76 2.74 6.05 2.46 8.04.22z" fill="#527597"/>
    <path d="m674.93 705.93a6.14 6.14 0 0 0 -1.65-5 6.21 6.21 0 0 0 -2.73-2.06 4.77 4.77 0 0 0 -5.57 2.64c-1.06 2.3-.2 6.59 2.27 7.82 2.75 1.33 7.01-.39 7.68-3.4z" fill="#527597"/>
    <path d="m669 762.57a2.86 2.86 0 0 1 -1.13-.09 3.22 3.22 0 0 1 -.88-.5 5.21 5.21 0 0 1 -1.07-.92 5.1 5.1 0 0 1 -.88-2.84 9.84 9.84 0 0 1 0-2.3 2.64 2.64 0 0 1 .35-1 3.13 3.13 0 0 1 .74-.71 5.42 5.42 0 0 1 1.79-1 6.77 6.77 0 0 1 1.49-.13 4.18 4.18 0 0 1 1.37.15 3.68 3.68 0 0 1 1.33 1 3.36 3.36 0 0 1 1.08 1.93 7.59 7.59 0 0 1 -.23 4 2.94 2.94 0 0 1 -1.8 1.93 6.29 6.29 0 0 1 -2.16.48z" fill="#ffbe4a"/>
    <path d="m673.47 740.62a4.12 4.12 0 0 1 -1.42 2.55 3.93 3.93 0 0 1 -2.46.79 6.4 6.4 0 0 1 -2.54-.61 2.93 2.93 0 0 1 -2.05-2.45 8.4 8.4 0 0 1 .21-4.45 3.6 3.6 0 0 1 1.39-2 3.45 3.45 0 0 1 1.33-.42 5.55 5.55 0 0 1 2 0 4.93 4.93 0 0 1 2.75 1.68 3.75 3.75 0 0 1 .77 1.36 5.8 5.8 0 0 1 .06 1.18 10 10 0 0 1 -.04 2.37z" fill="#ffbe4a"/>
    <path d="m673.47 722.22a4.74 4.74 0 0 1 -1.68 1.82 4.6 4.6 0 0 1 -2.92.77 3.49 3.49 0 0 1 -2.58-1.48 3.94 3.94 0 0 1 -.59-2.22 8.48 8.48 0 0 1 .41-2.29 4 4 0 0 1 1.54-2.39 3.53 3.53 0 0 1 1.37-.37 4.51 4.51 0 0 1 2.74.42 5.41 5.41 0 0 1 2 2.69 4 4 0 0 1 -.29 3.05z" fill="#ffbe4a"/>
    <path d="m673.08 707.18a5.14 5.14 0 0 1 -3.79 1.71 3.08 3.08 0 0 1 -1.53-.29 5.44 5.44 0 0 1 -1.69-2.26 4.34 4.34 0 0 1 -.43-.79 2.76 2.76 0 0 1 -.13-.95 7.11 7.11 0 0 1 .54-2.7 4 4 0 0 1 .72-1.18 3.24 3.24 0 0 1 1.85-.92 5.1 5.1 0 0 1 2.09.15 3.61 3.61 0 0 1 1.25.56 5.94 5.94 0 0 1 1.71 2.41 4.48 4.48 0 0 1 .22 2.66 3.92 3.92 0 0 1 -.81 1.6z" fill="#ffbe4a"/>
    <path d="m499.19 833.64c5.66.24 9.86.18 15.16.18 6.51-21.06 8.78-33.13 13.94-52-4.87-.39-9.21.57-14.93.84-5 19.14-10 31.63-14.17 50.98z" fill="#385b6b"/>
    <path d="m526.33 833.64c5.65.24 9.85.18 15.15.18 6.51-21.06 8.79-33.13 13.94-52-4.87-.39-9.21.57-14.92.84-5.01 19.14-10 31.63-14.17 50.98z" fill="#385b6b"/>
    <path d="m551.46 833.64c5.65.24 9.86.18 15.15.18 6.51-21.06 8.79-33.13 13.95-52-4.87-.39-9.21.57-14.93.84-5 19.14-10 31.63-14.17 50.98z" fill="#385b6b"/>
    <path d="m578.47 833.64c5.65.24 9.86.18 15.15.18 6.51-21.06 8.79-33.13 14-52-4.87-.39-9.21.57-14.93.84-5.05 19.14-10.05 31.63-14.22 50.98z" fill="#385b6b"/>
    <path d="m600.56 532.84c36.59 25.6 81.22 37.73 125.68 41.88s89.24.79 133.81-2.06c3-.19 6.27-.32 8.79 1.35 2.24 1.47 3.43 4.07 4.35 6.59a64.67 64.67 0 0 1 3.81 25.86c-.14 2.38-.45 4.85-1.79 6.81a12.07 12.07 0 0 1 -5.63 4c-4.77 2-9.91 2.77-15 3.46-27.36 3.72-55 4.19-82.66 4.28-51.63.19-103.26-.89-154.88-2-8.23-.18-16.51-.35-24.57-2a26.41 26.41 0 0 1 -8.56-3.06c-3.83-2.35-6.55-6.19-8.53-10.23-6.13-12.52-5.91-27.07-5.57-41l.58-23.8c.14-5.86-1.85-17.41 1-22.55 6.23-11.09 23.61 8.63 29.17 12.47z" fill="#272525" opacity=".08"/>
    <path d="m737.73 416.44c26.25 1.05 52.62.93 78.88-.36 1.38-.07 2.91-.19 3.79-.9a2.69 2.69 0 0 0 .84-2.12 412 412 0 0 0 .26-43.75c-.11-2.41-3-4.31-6.64-4.38-25.59-.49-51.25.12-76.76 1.82-3.51.23-6.22 2.17-6.29 4.51l-1.25 40.41a3.85 3.85 0 0 0 1 3.24c1.29 1.23 3.88 1.44 6.17 1.53z" fill="#4e6875"/>
    <path d="m640.62 416.44c26.25 1.05 52.63.93 78.89-.36 1.37-.07 2.9-.19 3.79-.9a2.65 2.65 0 0 0 .83-2.12 412 412 0 0 0 .27-43.75c-.12-2.41-3-4.31-6.64-4.38-25.6-.49-51.25.12-76.76 1.82-3.51.23-6.22 2.17-6.3 4.51l-1.24 40.41a3.85 3.85 0 0 0 1 3.24c1.29 1.23 3.88 1.44 6.16 1.53z" fill="#4e6875"/>
    <path d="m49.05 607.88c2.75-1.09 3-7.51 3.15-10.09.32-4.57 1.19-9.08 1.7-13.64a263.37 263.37 0 0 0 1.2-31.9c0-2.88-.14-9.41-3.91-10.32a4.35 4.35 0 0 0 -2.43.32c-6.74 2.45-7.3 8.69-7.84 14.83-.59 6.68.37 13.28.76 19.93q.66 11.32 1.33 22.66c.14 2.48.3 5.71 2.52 7.3 1.47 1.03 2.64 1.26 3.52.91z" fill="#d9dadd"/>
    <path d="m43.19 613a.74.74 0 0 0 .19.16c.51.31 1.66.06 2.24 0h2.43c1.8 0 3.16-.13 3.14-2.38a1.65 1.65 0 0 0 -.7-1.4 2.25 2.25 0 0 0 -1-.26 25.38 25.38 0 0 0 -3.8-.16c-.9 0-2.93-.26-3.06.87-.04.73-.05 2.48.56 3.17z" fill="#d9dadd"/>
    <path d="m52.05 622c-.16-2.26-1-4.79-.93-6.34 0-.5 0-1.11-.47-1.33a1.34 1.34 0 0 0 -.63-.07l-6.19.28a1.24 1.24 0 0 0 -.68.18 1.13 1.13 0 0 0 -.35.75 12.88 12.88 0 0 0 2.42 9.78 4.11 4.11 0 0 0 5 1.18c1.64-.77 1.97-2.51 1.83-4.43z" fill="#d9dadd"/>
    <path d="m56.89 616.73c-.53-.37-1.12-.68-1.67-1a5.78 5.78 0 0 0 -2.22-1.18 1.43 1.43 0 0 0 -1.46 2c.76 1.52 3.23 2.21 4.82 2.18 1.04-.06 1.24-1.49.53-2z" fill="#d9dadd"/>
    <path d="m48.3 540.93a5.15 5.15 0 0 0 .43.52 3.93 3.93 0 0 0 4.27 1.19c1.56-.68 2.21-2.51 2.67-4.15 5.51-19.32 10.72-38.86 13-58.81a4.44 4.44 0 0 0 -.21-2.51 4.34 4.34 0 0 0 -2.35-1.76 54.46 54.46 0 0 0 -15.16-3.92 7.93 7.93 0 0 0 -3.11.11c-2.89.86-2.73 3.46-2.64 5.78a70 70 0 0 1 -.5 9c-.71 7.19-.64 14.43-.89 21.64-.34 9.81 0 19.77 2.86 29.23a12.09 12.09 0 0 0 1.63 3.68z" fill="#d9dadd"/>
    <path d="m46 464.09a2.59 2.59 0 0 0 .27 1.76 2.62 2.62 0 0 0 1.37.79l19.68 6.6c2.78-8.51 5.38-18.45.28-25.9a13.49 13.49 0 0 0 -17.18 2.2c-3.37 3.93-3.97 9.46-4.42 14.55z" fill="#d9dadd"/>
    <path d="m75 759.41q-6.37-.79-12.79-1.15a6.11 6.11 0 0 0 -3 .34 5.89 5.89 0 0 0 -2.21 2.4c-9 14.6-8.52 33.1-5.54 50s8.14 33.6 7.54 50.74l10.27.47c3-32.53 14-64.59 11-97.12-.15-1.6-.41-3.34-1.6-4.41a6.56 6.56 0 0 0 -3.67-1.27z" fill="#d9dadd"/>
    <path d="m83.22 863.19a15.15 15.15 0 0 1 4.35.68 8 8 0 0 1 5.09 8q-16.89-2-33.57-5.42l.07-3.47q12.03-.47 24.06.21z" fill="#d9dadd"/>
    <path d="m55.34 613.3c-9.58 4.44-14.54 15-12 28.05 1.74 9 6.17 17.24 9.48 25.81a108.12 108.12 0 0 1 7.18 36.73 108.4 108.4 0 0 1 -1.34 19.11c-1 6.16-3.21 12.11-3.37 18.36a11 11 0 0 0 .58 4.41c.94 2.31 3.14 3.84 5.33 5 3.34 1.81 7.15 3.17 10.91 2.58 5.87-.92 7.52-6 8.42-11.09q1.88-10.62 3.76-21.23l7.5-42.47q2-11.25 4-22.5c1.19-6.71 2.38-13.51 1.71-20.28-1.4-14.12-12.09-22.08-25.65-24.32a28 28 0 0 0 -16.51 1.84z" fill="#d0d1d3"/>
    <path d="m108.86 612.74c-1.18-9.14-.14-26.6-6.23-34.44-8-10.32-32.21-5-43.87-4.52q-3.7 17.31-7.08 34.67c-2 10.33-6.6 22.73-5.71 33.24 1.3 15.32 30.51 25.11 44.78 20.76 4.59-1.41 8.55-4.06 12.4-6.71 3-2.08 6.19-4.34 7.58-7.53 1.09-2.51 1-5.3.78-8q-.9-13.76-2.65-27.47z" fill="#f1f1f2"/>
    <path d="m57 445.89c-3.6-.52-7.17-1-10.32-3-3.91-2.41-4.53-6.82-3.34-10.94 1.07-3.68 3.63-7 5.62-10.26 2.08-3.38 4.6-6.79 6.1-10.48.14-.36-.39-.63-.63-.37-3.13 3.35-5.45 7.72-8 11.53-2.35 3.57-5.15 7.37-5.67 11.74-1.16 9.63 7.69 12.92 15.6 14 1.44.24 2.09-2.01.64-2.22z" fill="#6d9dbf"/>
    <path d="m50.56 458.13c-4.85.26-11.56-3.2-14.32-7.23-4.44-6.5 4.36-11.86 8.61-15.1a34.37 34.37 0 0 0 13.2-24 .37.37 0 0 0 -.72-.1 39.26 39.26 0 0 1 -6.86 16.07 34.62 34.62 0 0 1 -7.18 7c-2.55 1.9-5.23 3.54-7.34 6-8.44 9.7 5.47 19.5 14.61 19.72 1.53.04 1.52-2.44 0-2.36z" fill="#6d9dbf"/>
    <path d="m83.39 393.71a29.39 29.39 0 0 0 5.9-18.92 27.42 27.42 0 0 0 -2.39-9.79 17.67 17.67 0 0 0 -4.27-6.14c-6.77-6.09-21.65-6.77-30.5-2.76-10.6 4.81-12.47 12.69-13.77 20.6-1.26 7.71 2.08 18 9.56 23.29 7.06 5 18.77 5.66 26.71 1.5a25.59 25.59 0 0 0 8.76-7.78z" fill="#97a8b2"/>
    <g fill="#537082">
        <path d="m54.34 390.89a2.44 2.44 0 1 1 2.44-2.43 2.46 2.46 0 0 1 -2.44 2.43zm0-3.93a1.5 1.5 0 1 0 1.5 1.5 1.52 1.52 0 0 0 -1.5-1.46z"/>
        <path d="m69.38 398.49a2.32 2.32 0 1 1 2.32-2.32 2.35 2.35 0 0 1 -2.32 2.32zm0-3.75a1.43 1.43 0 1 0 1.43 1.43 1.45 1.45 0 0 0 -1.43-1.43z"/>
        <path d="m59.53 381.33a2.44 2.44 0 1 1 2.47-2.44 2.48 2.48 0 0 1 -2.47 2.44zm0-3.94a1.5 1.5 0 1 0 1.5 1.5 1.52 1.52 0 0 0 -1.5-1.5z"/>
        <path d="m73.23 391.65a2.44 2.44 0 1 1 2.44-2.43 2.46 2.46 0 0 1 -2.44 2.43zm0-3.93a1.5 1.5 0 1 0 1.5 1.5 1.52 1.52 0 0 0 -1.5-1.5z"/>
        <path d="m71.7 383.77a2.44 2.44 0 1 1 2.44-2.44 2.48 2.48 0 0 1 -2.44 2.44zm0-3.94a1.5 1.5 0 1 0 1.5 1.5 1.52 1.52 0 0 0 -1.5-1.5z"/>
        <path d="m74.74 367.24a2.44 2.44 0 1 1 2.44-2.44 2.47 2.47 0 0 1 -2.44 2.44zm0-3.93a1.5 1.5 0 1 0 1.5 1.49 1.52 1.52 0 0 0 -1.5-1.49z"/>
        <path d="m81.51 376.63a2.09 2.09 0 1 1 2.08-2.09 2.12 2.12 0 0 1 -2.08 2.09z"/>
        <path d="m84.08 391.56a2.09 2.09 0 1 1 2.09-2.09 2.11 2.11 0 0 1 -2.09 2.09z"/>
        <path d="m65.13 392.2a2.09 2.09 0 1 1 2.08-2.09 2.12 2.12 0 0 1 -2.08 2.09z"/>
        <path d="m46.59 376.25a2.44 2.44 0 1 1 2.41-2.43 2.47 2.47 0 0 1 -2.41 2.43zm0-3.93a1.5 1.5 0 1 0 1.5 1.5 1.52 1.52 0 0 0 -1.5-1.5z"/>
        <path d="m68.27 394.66c-1.12-1.42-2.21-2.88-3.2-4.41-.15-.23-.62-.17-.58.16a6.61 6.61 0 0 0 1.2 2.4 26 26 0 0 0 1.84 2.6c.47.53 1.16-.22.74-.75z"/>
        <path d="m45.52 372.13a7.19 7.19 0 0 0 -1.87-2.58 10.12 10.12 0 0 1 -2.13-3.83.54.54 0 0 0 -1 .29c.41 2.65 2.59 4.45 4.07 6.52a.53.53 0 0 0 .93-.4z"/>
        <path d="m51.37 388.13c-4-.2-8.06-.59-12.09-1-.16 0-.17.19-.07.26 1.43 1.08 3.3 1.14 5 1.36 2.36.3 4.75.46 7.13.56.8.05.8-1.14.03-1.18z"/>
        <path d="m52.43 356.08h-.24a.12.12 0 0 0 0 .24h.24a.12.12 0 0 0 0-.24z"/>
        <path d="m58.83 370.63a47.46 47.46 0 0 0 -.73-6.2c-.79-3.1-3.68-6.12-5.67-8.56-.25-.3-.72.09-.53.41 1.66 2.77 4.86 5.77 5.29 9.05.51 3.82.87 7.66 1.3 11.49.07.67 1.12.67 1 0z"/>
        <path d="m57.43 397.92c-1.76.26-3.53.51-5.29.78-2.25.34-5.35 1.23-6.7-1.32-.1-.19-.44-.11-.41.11a3.09 3.09 0 0 0 3.13 2.75c3.17.09 6.46-.74 9.58-1.21.74-.11.42-1.22-.31-1.11z"/>
        <path d="m57.8 396.75c-1.21.39-2 2.88-.71 3.45l.17.17a2 2 0 0 0 3.26-1.37 2.09 2.09 0 0 0 -2.72-2.25zm.08 3.2a.49.49 0 0 0 -.43-.57c-.3 0 .06-1 .11-1.2a1 1 0 0 1 .74-.66 1.24 1.24 0 0 1 1.45 1.33 1.31 1.31 0 0 1 -1.87 1.15z"/>
        <path d="m80.87 374.51a32 32 0 0 0 -4.36-.43c-1.69-.1-3.6.17-5.22-.33a.39.39 0 0 0 -.49.38c.07 1.56.07 3.13.14 4.69a.25.25 0 0 0 .5 0c.06-1.38.06-2.77.12-4.15a15.4 15.4 0 0 0 3.53.29c1.89.08 3.77.35 5.66.4.48.02.6-.76.12-.85z"/>
        <path d="m67 367.12a58.59 58.59 0 0 0 -.32-9.83c-.36-2.2-2.17-4.14-4.49-3.87a.24.24 0 0 0 0 .47c4.57.32 3.81 6.15 3.82 9.33a22.11 22.11 0 0 1 0 3.82 2.28 2.28 0 0 0 -1.76 1.37c-1.19 2.45 2.83 4 3.83 2.09l.26-.26c1.1-1.24.03-2.74-1.34-3.12z"/>
        <path d="m82.56 389.53a33.26 33.26 0 0 0 -3.6-.19h-1.74a6.12 6.12 0 0 1 -2.22-.07.18.18 0 0 0 -.21.28c.56.63 1.63.58 2.43.69a24.67 24.67 0 0 0 5.22.25c.49-.08.68-.88.12-.96z"/>
        <path d="m87 363.68c-.15-.65-1.12-.37-1 .28 0 .22 0 .43.07.65-3-.08-6.11-.11-9.15-.06a.28.28 0 0 0 0 .56c3.23.26 6.48.43 9.72.56a.52.52 0 0 0 .52-.52 4.55 4.55 0 0 0 -.16-1.47z"/>
    </g>
    <path d="m84.81 395.22a32.2 32.2 0 0 0 6.54-20.85 30.41 30.41 0 0 0 -2.64-10.8 19.82 19.82 0 0 0 -4.71-6.76c-7.5-6.71-24-7.45-33.77-3-11.74 5.3-13.8 14-15.24 22.7-1.4 8.49 2.3 19.81 10.58 25.65 7.81 5.51 20.78 6.24 29.57 1.66a28.28 28.28 0 0 0 9.67-8.6z" fill="#b4ffff" opacity=".22"/>
    <path d="m78.77 436.72a60.45 60.45 0 0 0 -16.06-4.08 1.79 1.79 0 1 0 -.57 3.54c3.75.76 7.48 1.4 11.18 2.37 1.66.43 3.3 1 4.92 1.5s4.23 1 5.12 2.41a.84.84 0 0 0 1.3 0c1.74-3.02-3.39-4.76-5.89-5.74z" fill="#537082"/>
    <path d="m84 433c-6-5-14.78-7.16-22.91-7.92-2.81-.27-2.82 3.48 0 3.7 7.9.62 14.75 3.08 22 5.46.91.3 1.47-.73.91-1.24z" fill="#537082"/>
    <path d="m79.18 424.05c-4.32-3.76-11.9-5.33-17.85-6-3-.35-3.59 3.25-.55 3.45a63.41 63.41 0 0 1 9.22 1.36c2.85.63 5.54 1.77 8.4 2.3.78.14 1.35-.62.78-1.11z" fill="#537082"/>
    <path d="m75.6 416a28.56 28.56 0 0 0 -15.4-3.49c-2.61.12-2.64 3.44 0 3.42a77.86 77.86 0 0 1 14.71 1.43c1.01.14 1.51-.92.69-1.36z" fill="#537082"/>
    <path d="m40.72 465.77a75.61 75.61 0 0 1 2.64-7.31c3-7 9.18-17.6 19.48-18.25 10.81-.67 22.85 8.34 30.63 13.79a28.84 28.84 0 0 1 6.62 5.68c2 2.62 2.76 5.7 3.39 8.7 7 33.39 2 67.06-3.09 100.12-.12.81-28.64-1.75-31.83-1.57a4.23 4.23 0 0 1 -2.32-.29c-1.14-.64-1.37-2.15-1.45-3.45-.58-9.78.34-20.11-4-28.88-.87-1.75-4.44-4.49-5.92-6.28-2.18-2.63-4.42-5.19-6.44-7.95-12.03-16.38-13.1-36.59-7.71-54.31z" fill="#f1f1f2"/>
    <path d="m75.31 419.71a87.53 87.53 0 0 0 14.24 14.23 11 11 0 0 0 4.58 2.49c5.14.95 8.8-4.83 10.37-9.81 4.44-14.09 4.94-29.08 5.39-43.85.14-4.44.27-9-1-13.24-3-10.5-15.1-17.45-25.71-14.81a10.12 10.12 0 0 0 -4.07 1.88c-2.7 2.28-3.06 6.26-3.06 9.8 0 11.82 1.8 24-1.94 35.22-1.26 3.79-3.17 7.68-2.37 11.6a16.09 16.09 0 0 0 3.57 6.49z" fill="#f1f1f2"/>
    <path d="m112.6 407.84h-8a102.39 102.39 0 0 1 1.4-17.42 4.18 4.18 0 0 1 .48-1.56 1.48 1.48 0 0 1 1.37-.74q3.56 8.86 6.25 18a1.5 1.5 0 0 1 .06 1.06c-.16.58-.95.66-1.56.66z" fill="#f1f1f2"/>
    <path d="m81.33 398.68a11.07 11.07 0 0 0 1.15-2.68 8.46 8.46 0 0 0 .42-4 10.45 10.45 0 0 0 -1.26-3l-.57-1a5.7 5.7 0 0 0 -5.2-3.31 10.88 10.88 0 0 0 -3.36-.25 7.06 7.06 0 0 0 -5.51 4.64 9.86 9.86 0 0 0 .51 7.38c1.34 2.91 4.09 5.34 7.29 5.56a7.3 7.3 0 0 0 6.53-3.34z" fill="#272525" opacity=".2"/>
    <path d="m79.54 398.32a11.26 11.26 0 0 0 1.16-2.72 8.46 8.46 0 0 0 .41-4 9.79 9.79 0 0 0 -1.26-2.94l-.56-1a7.8 7.8 0 0 0 -1-1.48 7.35 7.35 0 0 0 -4.22-1.83 10.86 10.86 0 0 0 -3.36-.25 7 7 0 0 0 -5.52 4.63 9.83 9.83 0 0 0 .5 7.39c1.35 2.91 4.1 5.33 7.3 5.56a7.31 7.31 0 0 0 6.55-3.36z" fill="#f1f1f2"/>
    <path d="m68.49 625.13c-8.62 6.07-11.59 17.34-6.74 29.73 3.34 8.55 9.18 15.86 14 23.7a108.68 108.68 0 0 1 15.41 66.44c-.34 3.61-.39 8.14 2.87 9.76a8.89 8.89 0 0 0 4.07.61l13.86-.14a5.31 5.31 0 0 0 3.41-.82c1.16-1 1.25-2.7 1.24-4.21l-.6-90.09c-.05-6.81-.11-13.71-2-20.26-3.93-13.63-15.88-19.57-29.62-19.37-6.39.05-11.8 1.76-15.9 4.65z" fill="#d9dadd"/>
    <path d="m110.74 761.14q-6.72-.52-13.45-.59a6.36 6.36 0 0 0 -3.12.51 6.06 6.06 0 0 0 -2.23 2.59c-8.71 15.72-7.31 35.07-3.38 52.61s10.17 34.8 10.44 52.74h10.77c1.59-34.2 11.58-68.3 6.83-102.2-.24-1.67-.59-3.48-1.89-4.54a6.89 6.89 0 0 0 -3.97-1.12z" fill="#d9dadd"/>
    <path d="m124.36 869.38a16 16 0 0 1 4.58.51 8.38 8.38 0 0 1 5.71 8.13q-17.78-1.24-35.4-4.06l-.09-3.63c8.37-.71 16.84-1.03 25.2-.95z" fill="#d9dadd"/>
    <path d="m107.49 772.12a6.57 6.57 0 0 0 .68-1.59 4.84 4.84 0 0 0 .24-2.32 5.76 5.76 0 0 0 -.74-1.71l-.33-.58a4.14 4.14 0 0 0 -.57-.86 4.27 4.27 0 0 0 -2.47-1.06 6.19 6.19 0 0 0 -2-.15 4.11 4.11 0 0 0 -3.23 2.69 5.66 5.66 0 0 0 .29 4.29 5.38 5.38 0 0 0 4.27 3.22 4.27 4.27 0 0 0 3.86-1.93z" fill="#272525" opacity=".2"/>
    <path d="m106.45 771.91a6.17 6.17 0 0 0 .67-1.59 4.85 4.85 0 0 0 .25-2.32 5.76 5.76 0 0 0 -.74-1.71l-.33-.58a4.58 4.58 0 0 0 -.57-.86 4.27 4.27 0 0 0 -2.47-1.06 6.23 6.23 0 0 0 -2-.15 4.14 4.14 0 0 0 -3.23 2.69 5.71 5.71 0 0 0 .3 4.29 5.37 5.37 0 0 0 4.26 3.22 4.3 4.3 0 0 0 3.86-1.93z" fill="#83959e"/>
    <path d="m104.13 769.76a2.56 2.56 0 0 0 .34-1.48 1.32 1.32 0 0 0 0-.52 1.19 1.19 0 0 0 -.5-.59 2.2 2.2 0 0 0 -2.33 0 1.91 1.91 0 0 0 -.78 2.15 3.44 3.44 0 0 0 1.59 1 1.67 1.67 0 0 0 1.68-.56z" opacity=".2"/>
    <path d="m71.78 770.09a6.5 6.5 0 0 0 .68-1.58 4.87 4.87 0 0 0 .24-2.33 5.71 5.71 0 0 0 -.74-1.7l-.33-.59a4.51 4.51 0 0 0 -.57-.85 4.34 4.34 0 0 0 -2.47-1.04 6.83 6.83 0 0 0 -2-.15 4.12 4.12 0 0 0 -3.23 2.7 5.64 5.64 0 0 0 .29 4.28 5.4 5.4 0 0 0 4.35 3.17 4.25 4.25 0 0 0 3.78-1.91z" fill="#272525" opacity=".2"/>
    <path d="m70.74 769.88a6.11 6.11 0 0 0 .67-1.58 4.88 4.88 0 0 0 .25-2.33 5.71 5.71 0 0 0 -.74-1.7l-.33-.59a4.12 4.12 0 0 0 -.58-.85 4.28 4.28 0 0 0 -2.46-1.07 6.88 6.88 0 0 0 -2-.15 4.13 4.13 0 0 0 -3.23 2.7 5.69 5.69 0 0 0 .3 4.28 5.37 5.37 0 0 0 4.26 3.23 4.28 4.28 0 0 0 3.86-1.94z" fill="#83959e"/>
    <path d="m68.42 767.74a2.6 2.6 0 0 0 .34-1.48 1.35 1.35 0 0 0 -.05-.53 1.13 1.13 0 0 0 -.5-.58 2.2 2.2 0 0 0 -2.33 0 1.89 1.89 0 0 0 -.78 2.14 3.29 3.29 0 0 0 1.59 1 1.67 1.67 0 0 0 1.73-.55z" opacity=".2"/>
    <path d="m96.79 651.58a14.2 14.2 0 0 0 1.51-3.58 10.81 10.81 0 0 0 .55-5.21 13.44 13.44 0 0 0 -1.65-3.79l-.74-1.31a9.93 9.93 0 0 0 -1.29-1.92c-1.38-1.49-3.51-2-5.52-2.38a14.82 14.82 0 0 0 -4.4-.33 9.21 9.21 0 0 0 -7.23 6 12.64 12.64 0 0 0 .66 9.59c1.76 3.78 5.36 6.93 9.55 7.22a9.56 9.56 0 0 0 8.56-4.29z" fill="#272525" opacity=".2"/>
    <path d="m94.46 651.11a15 15 0 0 0 1.54-3.54 10.92 10.92 0 0 0 .54-5.21 13.05 13.05 0 0 0 -1.65-3.82l-.74-1.31a9.93 9.93 0 0 0 -1.29-1.92c-1.38-1.49-3.51-2-5.52-2.38a14.82 14.82 0 0 0 -4.4-.33 9.23 9.23 0 0 0 -7.23 6 12.64 12.64 0 0 0 .66 9.59c1.76 3.78 5.36 6.93 9.55 7.22a9.58 9.58 0 0 0 8.54-4.3z" fill="#83959e"/>
    <path d="m87.91 645.91a5.13 5.13 0 0 0 .7-3 3.14 3.14 0 0 0 -.1-1.06 2.48 2.48 0 0 0 -1-1.2 4.44 4.44 0 0 0 -4.73-.1 3.87 3.87 0 0 0 -1.6 4.36 6.79 6.79 0 0 0 3.23 2.1 3.42 3.42 0 0 0 3.5-1.1z" opacity=".2"/>
    <path d="m89.75 542.1a5.25 5.25 0 0 0 .53.43 3.92 3.92 0 0 0 4.42.31c1.39-1 1.65-2.9 1.78-4.6 1.52-20 2.72-40.22 1-60.22a4.48 4.48 0 0 0 -.71-2.42 4.35 4.35 0 0 0 -2.65-1.25 54.36 54.36 0 0 0 -15.64-.8 7.67 7.67 0 0 0 -3 .73c-2.66 1.42-2 3.93-1.43 6.19a69.51 69.51 0 0 1 1.32 8.92c.74 7.19 2.26 14.26 3.46 21.37 1.64 9.69 4 19.38 8.67 28.07a11.94 11.94 0 0 0 2.25 3.27z" fill="#d9dadd"/>
    <path d="m148.08 506.87c-2.43-1.69-7.92 1.65-10.16 2.92-4 2.26-8.24 4-12.32 6.1a263.87 263.87 0 0 0 -27.29 16.55c-2.39 1.62-7.78 5.3-6.46 8.95a4.31 4.31 0 0 0 1.61 1.86c5.75 4.28 11.26 1.31 16.69-1.62 5.9-3.19 10.88-7.63 16.21-11.61l18.19-13.59c2-1.49 4.61-3.39 4.7-6.13.07-1.82-.39-2.89-1.17-3.43z" fill="#d9dadd"/>
    <path d="m155.55 509a.54.54 0 0 0 0-.25c0-.6-.86-1.42-1.19-1.89l-1.38-2c-1-1.48-1.85-2.56-3.71-1.31a1.64 1.64 0 0 0 -.79 1.35 2.31 2.31 0 0 0 .31.95 26.32 26.32 0 0 0 2 3.26c.51.74 1.4 2.59 2.41 2.07.67-.39 2.13-1.35 2.35-2.18z" fill="#d9dadd"/>
    <path d="m158.21 496.59c-1.8 1.38-3.47 3.43-4.78 4.26-.42.27-.91.64-.85 1.13a1.35 1.35 0 0 0 .29.57l3.64 5a1.2 1.2 0 0 0 .52.48 1.17 1.17 0 0 0 .83-.13 12.86 12.86 0 0 0 6.83-7.4 4.13 4.13 0 0 0 -1.74-4.78c-1.58-.99-3.21-.3-4.74.87z" fill="#d9dadd"/>
    <path d="m151.15 495.45c0 .64 0 1.31.08 1.95a5.66 5.66 0 0 0 .22 2.46 1.42 1.42 0 0 0 2.43.14c.86-1.47.08-3.91-.83-5.22-.56-.78-1.87-.2-1.9.67z" fill="#d9dadd"/>
    <path d="m72.09 467.29a1.95 1.95 0 0 0 2.12 2.17l20.6 2.54c1-8.89 1.58-19.15-4.91-25.43a13.48 13.48 0 0 0 -16.39 5.6c-2.51 4.5-2 10-1.42 15.12z" fill="#d9dadd"/>
    <path d="m610 697.48a3.71 3.71 0 0 0 -2 .2c-1.93 1-2.39 4.53-2.5 7.47-.32 9-.08 17.42.16 26.41a8 8 0 0 0 .37 2.61c.65 1.68 2.21 2 3.55 2.09a112.6 112.6 0 0 0 16.53 0 3.15 3.15 0 0 0 2.86-1.46 7.11 7.11 0 0 0 .58-2.67c.44-5.44.62-10.93.54-16.41-.06-4.19.39-11.33-1-15.14-1.25-3.52-5.38-2.47-7.74-2.68-3.69-.34-7.67-.1-11.35-.42z" fill="#2f3f47"/>
    <path d="m610.8 700.77a3.63 3.63 0 0 0 -1.82.17c-1.73.8-2.14 3.77-2.23 6.21-.29 7.47-.08 14.48.14 22a6.2 6.2 0 0 0 .32 2.17c.59 1.4 2 1.66 3.19 1.74a109 109 0 0 0 14.79 0 2.91 2.91 0 0 0 2.56-1.21 5.33 5.33 0 0 0 .51-2.22 132.09 132.09 0 0 0 .49-13.64c0-3.48.35-9.42-.85-12.58-1.12-2.93-4.82-2.06-6.93-2.23-3.31-.34-6.87-.18-10.17-.41z" fill="#385b6b"/>
    <path d="m614.18 687.55q.52 17.37.78 34.75c.06 3.42 5.62 3.61 5.56.17q.22-17.37.68-34.72c.12-4.35-7.15-4.53-7.02-.2z" fill="#fff"/>
    <path d="m626.21 681a8.92 8.92 0 0 0 -11.21-5.44 9.12 9.12 0 0 0 -6 8.63 7.45 7.45 0 0 0 6.56 7.34 8 8 0 0 0 9.21-2 5.47 5.47 0 0 0 1.11-1.28 7.87 7.87 0 0 0 .33-7.25z" fill="#ffbe4a"/>
    <path d="m570.94 697.48a3.69 3.69 0 0 0 -2 .2c-1.94 1-2.39 4.53-2.5 7.47-.33 9-.09 17.42.16 26.41a8 8 0 0 0 .36 2.61c.65 1.68 2.22 2 3.56 2.09a112.46 112.46 0 0 0 16.52 0 3.14 3.14 0 0 0 2.86-1.46 6.92 6.92 0 0 0 .58-2.67c.44-5.44.63-10.93.55-16.41-.06-4.19.39-11.33-1-15.14-1.25-3.52-5.38-2.47-7.74-2.68-3.69-.34-7.66-.1-11.35-.42z" fill="#2f3f47"/>
    <path d="m571.74 700.77a3.6 3.6 0 0 0 -1.81.17c-1.73.8-2.14 3.77-2.24 6.21-.29 7.47-.07 14.48.15 22a6.2 6.2 0 0 0 .32 2.17c.58 1.4 2 1.66 3.18 1.74a109 109 0 0 0 14.79 0 2.88 2.88 0 0 0 2.56-1.21 5.49 5.49 0 0 0 .52-2.22 132.09 132.09 0 0 0 .49-13.64c-.05-3.48.35-9.42-.86-12.58-1.12-2.93-4.81-2.06-6.93-2.23-3.3-.34-6.86-.18-10.17-.41z" fill="#385b6b"/>
    <path d="m575.13 687.55q.52 17.37.78 34.75c.05 3.42 5.62 3.61 5.56.17q.21-17.37.68-34.72c.12-4.35-7.15-4.53-7.02-.2z" fill="#fff"/>
    <path d="m587.15 681a8.69 8.69 0 0 0 -1.73-2.92 9 9 0 0 0 -9.43-2.53 9.13 9.13 0 0 0 -6 8.63 7.46 7.46 0 0 0 6.57 7.34 8 8 0 0 0 9.2-2 5.47 5.47 0 0 0 1.11-1.28 7.84 7.84 0 0 0 .28-7.24z" fill="#ffbe4a"/>
    <path d="m531 697.48a3.71 3.71 0 0 0 -2 .2c-1.93 1-2.39 4.53-2.49 7.47-.33 9-.09 17.42.15 26.41a8 8 0 0 0 .37 2.61c.65 1.68 2.21 2 3.55 2.09a112.6 112.6 0 0 0 16.53 0 3.15 3.15 0 0 0 2.86-1.46 7.11 7.11 0 0 0 .58-2.67c.44-5.44.62-10.93.54-16.41-.06-4.19.39-11.33-1-15.14-1.25-3.52-5.38-2.47-7.75-2.68-3.66-.34-7.64-.1-11.34-.42z" fill="#2f3f47"/>
    <path d="m531.82 700.77a3.63 3.63 0 0 0 -1.82.17c-1.73.8-2.13 3.77-2.23 6.21-.29 7.47-.08 14.48.14 22a6 6 0 0 0 .33 2.17c.58 1.4 2 1.66 3.18 1.74a109 109 0 0 0 14.79 0 2.91 2.91 0 0 0 2.56-1.21 5.49 5.49 0 0 0 .52-2.22 135 135 0 0 0 .49-13.64c-.06-3.48.34-9.42-.86-12.58-1.12-2.93-4.82-2.06-6.93-2.23-3.31-.34-6.86-.18-10.17-.41z" fill="#385b6b"/>
    <path d="m535.2 687.55q.52 17.37.78 34.75c.06 3.42 5.63 3.61 5.56.17q.23-17.37.68-34.72c.12-4.35-7.15-4.53-7.02-.2z" fill="#fff"/>
    <path d="m547.23 681a8.92 8.92 0 0 0 -11.17-5.45 9.14 9.14 0 0 0 -6 8.63 7.45 7.45 0 0 0 6.56 7.34 8 8 0 0 0 9.21-2 5.47 5.47 0 0 0 1.11-1.28 7.87 7.87 0 0 0 .29-7.24z" fill="#ffbe4a"/>
    <path d="m404.64 163.56-3.38-14.14a1.56 1.56 0 0 0 -3 0q-2.24 7-4.45 14l-4.32-12.76a1.58 1.58 0 0 0 -3 0l-5.28 15.17q-3.66-5.55-7.33-11.09a1.57 1.57 0 0 0 -2.83.37 46.47 46.47 0 0 0 -2.86 12.18c-6 .15-12 .25-18.06.37-3.45.07-45.89.26-49.34.33h-.35c.28.95.54 1.9.74 2.86h2.2c3-.06 45-.23 48-.29 6.05-.11 12.09-.26 18.14-.33a1.51 1.51 0 0 0 1.48-1.48 47.22 47.22 0 0 1 2-9.75q3.66 5.57 7.33 11.13a1.58 1.58 0 0 0 2.85-.37q2.42-6.93 4.82-13.86 2.2 6.48 4.4 12.95a1.57 1.57 0 0 0 3 0l4.18-13.19 1.53 6.4c.52 2.18.66 5.72 3.29 6.54l63.47-1.07v-3.81z" fill="#6d9dbf"/>
    <path d="m391.36 72.79c6.35.89 12.67-4.22 13.95-10.5s-2-13-7.26-16.64c-8.36-5.8-21.27-3.4-27 5-3.54 5.21-4.7 12.57.76 16.82 3.17 2.48 5.78 2.59 7.1 6.35s-.29 10.59-.31 14.56c0 2.47.35 29.62.73 29.61l9.41-.38c-.52-14.49-.35-29 .5-43.48a1.76 1.76 0 0 1 .29-1c.41-.53 1.19-.43 1.83-.34z" fill="#eeca2e"/>
    <path d="m387.8 67.87c.5.07.9-.38 1.2-.79l6.76-9.27a3.51 3.51 0 0 0 1-2.7c-.35-1.52-2.33-1.83-3.89-1.83h-13.43l7.44 13.72c.21.38.48.81.92.87z" fill="#aa6a64"/>
    <path d="m393.57 111.9a14.37 14.37 0 0 1 5.57 17.62l-33.75-.73c-.72-4.92-1.17-10.72 2.49-14.09a14.42 14.42 0 0 1 5.33-2.72c6.65-2.22 14.33-3.66 20.36-.08z" fill="#98b99d"/>
    <path d="m471.66 414.93c-.45-1-1.49-2.6-1.54-3.71-.11-2.28 1.16-3.53 2.5-4.62a29.9 29.9 0 0 0 4.37-4.14c2.22-2.64 3.9-5.3 3.57-9.2-.25-2.95-1.05-6.33-3.46-7.7-2.17-1.23-4.79-.47-6.68 1.17-2.78 2.41-4.25 6.56-5.84 10.08l-3.21 7.13a13.12 13.12 0 0 0 -1.51 4.48c-.23 4.05 4 8.09 6 10.8 3.36 4.6 6.86 9 10.51 13.31a.8.8 0 0 0 .64.76c2.37.27.37-4.41.05-5.37-1.54-4.49-3.5-8.73-5.4-12.99z" fill="#97a8b2"/>
    <path d="m500.69 427.92c-.32 1-2.32 5.64.05 5.37a.8.8 0 0 0 .64-.76c3.65-4.26 7.15-8.71 10.51-13.31 2-2.71 6.21-6.75 6-10.8a13.12 13.12 0 0 0 -1.51-4.48q-1.61-3.57-3.22-7.13c-1.58-3.52-3.05-7.67-5.83-10.08-1.89-1.64-4.51-2.4-6.68-1.17-2.41 1.37-3.21 4.75-3.46 7.7-.33 3.9 1.35 6.56 3.57 9.2a29.9 29.9 0 0 0 4.37 4.14c1.34 1.09 2.61 2.34 2.5 4.62-.05 1.11-1.09 2.72-1.54 3.71-1.92 4.26-3.88 8.5-5.4 12.99z" fill="#97a8b2"/>
    <path d="m504.49 370.38a16.17 16.17 0 0 0 -3.65-8.37 14.44 14.44 0 0 0 -16.17-3.94c-1.15 1.38-3 1.7-4.6 2.49-3.81 1.93-5.31 6.67-4.71 11.17 9.73-.19 19.43-.68 29.13-1.35z" fill="#97a8b2"/>
    <path d="m471.72 372.08c.28.81.56 1.61.85 2.42a269.43 269.43 0 0 0 34.21-1.1c.13-.82.53-1.58.68-2.4a2 2 0 0 0 -.83-2.17 2.47 2.47 0 0 0 -1.18-.15 272.54 272.54 0 0 0 -33.73 3.4z" fill="#ffbe4a"/>
    <path d="m504.38 372.68c1.38 4.23-1.49 8.94-5.41 11.05s-8.59 2.23-13 2.06a14.72 14.72 0 0 1 -5.75-1 8.09 8.09 0 0 1 -4.45-6.77c-.21-3.33 1.71-3.75 4.6-3.89q11.99-.57 24.01-1.45z" fill="#97a8b2"/>
    <path d="m476.85 382.58a4.52 4.52 0 0 0 -3.12 2.46c-.79 1.31-1.32 3-.6 4.35a4.55 4.55 0 0 0 3.55 1.95 3.33 3.33 0 0 0 1.88-.14 3.88 3.88 0 0 0 1.71-2.68c.36-1.23.68-2.63 0-3.74s-2.07-2.35-3.42-2.2z" fill="#385b6b"/>
    <path d="m496.48 386a2.85 2.85 0 0 0 .15 1.87 3.25 3.25 0 0 0 1.06 1.06 4.78 4.78 0 0 0 1.47.76 3.64 3.64 0 0 0 3.17-.67 4.67 4.67 0 0 0 1.68-2.83 2.81 2.81 0 0 0 0-1.32c-1.3-4.87-6.71-2.72-7.53 1.13z" fill="#385b6b"/>
    <path d="m475 387.43a2.15 2.15 0 0 0 -.57 1.28.81.81 0 0 0 0 .41.87.87 0 0 0 .2.23 2.92 2.92 0 0 0 1 .65 1.75 1.75 0 0 0 2.25-1.36 1.21 1.21 0 0 0 -.17-.89 2.06 2.06 0 0 0 -2.71-.32z" fill="#6e7b82"/>
    <path d="m475.55 388.09a.08.08 0 0 0 0 0 .54.54 0 0 0 -.11.41.62.62 0 0 0 .49.52.59.59 0 0 0 .63-.42c.14-.51-.69-1.11-1.01-.51z" fill="#3c4447"/>
    <path d="m499.8 385.91a2.09 2.09 0 0 0 -.57 1.28.72.72 0 0 0 0 .41.83.83 0 0 0 .19.23 3 3 0 0 0 1 .65 1.78 1.78 0 0 0 1.44-.17 1.74 1.74 0 0 0 .81-1.19 1.12 1.12 0 0 0 -.17-.89 2 2 0 0 0 -2.7-.32z" fill="#6e7b82"/>
    <path d="m500.38 386.57a.06.06 0 0 1 0 0 .53.53 0 0 0 -.11.41.63.63 0 0 0 .5.52.58.58 0 0 0 .62-.42c.15-.51-.69-1.08-1.01-.51z" fill="#3c4447"/>
    <path d="m667.64 18.16c1.83-1.35 4.06-1.23 6.35-1.42a105 105 0 0 1 17.12.15 1.54 1.54 0 0 0 .71-.05 1.24 1.24 0 0 0 .55-.47c1.18-1.56 1.25-3.64 1.25-5.57q0-3.63-.17-7.26a2.64 2.64 0 0 0 -.45-1.61 3 3 0 0 0 -2.28-.71c-5.17-.11-10.38.11-15.55 0a65.73 65.73 0 0 0 -13.58 1.13c-3 .56-5.9.84-7.75 3.15a11.89 11.89 0 0 0 -1.84 3.72c-1.88 5.65-1.88 11.7-1.85 17.62a1.89 1.89 0 0 0 .38 1.4 2 2 0 0 0 .74.4 16.07 16.07 0 0 0 6.32.69 29.44 29.44 0 0 0 3.13-.42c.85-.15 4 .12 4.73-.33 1-.64.49-3.23.57-4.49.16-2.82.2-4.88 1.62-5.93z" fill="#4e6875"/>
    <path d="m783.06 18.16c-1.83-1.35-4-1.23-6.35-1.42a104.92 104.92 0 0 0 -17.11.15 1.59 1.59 0 0 1 -.72-.05 1.17 1.17 0 0 1 -.54-.47c-1.18-1.56-1.26-3.64-1.26-5.57 0-2.42.06-4.84.17-7.26a2.65 2.65 0 0 1 .44-1.61 3 3 0 0 1 2.31-.71c5.17-.11 10.38.11 15.55 0a65.79 65.79 0 0 1 13.55 1.12c3 .56 5.89.84 7.74 3.15a11.89 11.89 0 0 1 1.87 3.73c1.89 5.65 1.64 15 1.61 21a1.87 1.87 0 0 1 -.38 1.39 1.84 1.84 0 0 1 -.74.4 15.91 15.91 0 0 1 -6.33.69c-1-.08-2.09-.23-3.13-.41-.84-.16-4 .11-4.72-.33-1-.65-.25-6.56-.32-7.82-.17-2.87-.21-4.93-1.64-5.98z" fill="#4e6875"/>
    <path d="m825.43 64.35c6.55 4.12 11.18 7.59 11.2 14.6.14 53 .73 100.4 0 146.16 0 1.61-.25.38-1.38 1.66s-4.08.52-6 1c-16.71 4.05-34.49 1.41-51.81 2.19-4.82.22-9.66.71-14.43.16s-13.6.46-16.45-2.89c-3-3.52-2.88-8-3.08-12.33-1.9-41.25-3.73-85.48-.95-126.69.42-6.11-1.84-15.18 2.68-19.9 4.26-4.46 11.18-6.38 17.86-6.87 5-.37 10.24.43 15.23-.27 3.2-.44 14.82.74 18 .2 8.53-1.45 21.86-1.6 29.13 2.98z" fill="#97a8b2"/>
    <path d="m172.7 175.79c40.49-.11 81.19-.55 121.73-1.31a52.19 52.19 0 0 0 5.86-.3c1.11-.17 1.25-.39 1.33-.59a20.58 20.58 0 0 0 1.07-11.94c-.14-.65-4.6-1.13-10.18-1.09-39.48.26-79.08.81-118.47 1.67-5.41.11-12.29-.23-12.44.41l.13 12c-.07.3-.09.64 1.42.87a81.37 81.37 0 0 0 9.55.28z" fill="#2f3f47"/>
    <path d="m473 172c40.49-.11 81.19-.55 121.73-1.3a54.37 54.37 0 0 0 5.86-.31c1.11-.16 1.25-.38 1.33-.59a20.58 20.58 0 0 0 1.08-11.98c-.14-.65-4.6-1.13-10.18-1.09-39.48.26-79.08.81-118.47 1.67-5.41.12-12.29-.23-12.44.41l.13 12c-.07.31-.09.64 1.42.87a81.37 81.37 0 0 0 9.54.32z" fill="#2f3f47"/>
    <path d="m483.73 355.28 12-.69q-2.87-28.68-3-57.45h-10.73q.37 29.07 1.73 58.14z" fill="#385b6b"/>
    <path d="m486.76 302.92q-.13-6-.25-12-31.31 1.59-62.6.43c-.14 3.59-.29 7.17-.44 10.76q31.64.89 63.29.81z" fill="#385b6b"/>
    <path d="m226.42 435.46c-.44-1-1.48-2.6-1.54-3.71-.11-2.27 1.16-3.53 2.51-4.61a30.42 30.42 0 0 0 4.36-4.15c2.22-2.63 3.9-5.29 3.58-9.19-.25-3-1.06-6.34-3.47-7.7-2.17-1.24-4.79-.47-6.67 1.16-2.78 2.42-4.26 6.56-5.84 10.08l-3.22 7.14a13 13 0 0 0 -1.5 4.48c-.24 4 4 8.08 6 10.8 3.37 4.6 6.86 9 10.52 13.31a.77.77 0 0 0 .63.75c2.37.28.38-4.41.05-5.36-1.55-4.46-3.51-8.74-5.41-13z" fill="#97a8b2"/>
    <path d="m255.45 448.46c-.32 1-2.31 5.64.05 5.36a.78.78 0 0 0 .64-.75q5.48-6.4 10.52-13.31c2-2.72 6.2-6.76 6-10.8a12.77 12.77 0 0 0 -1.51-4.48c-1.06-2.38-2.14-4.76-3.21-7.14-1.59-3.52-3.06-7.66-5.84-10.08-1.88-1.63-4.5-2.4-6.68-1.16-2.4 1.36-3.21 4.74-3.46 7.7-.33 3.9 1.35 6.56 3.57 9.19a30.49 30.49 0 0 0 4.37 4.15c1.35 1.08 2.61 2.34 2.5 4.61-.05 1.11-1.09 2.72-1.53 3.71-1.94 4.26-3.87 8.54-5.42 13z" fill="#97a8b2"/>
    <path d="m239.24 392 12-1.32q-2.87-55.26-3-110.68h-10.75q.39 56 1.75 112z" fill="#385b6b"/>
    <path d="m353.73 282.25-1.32-12q-55.26 2.86-110.68 3v10.75q56.01-.37 112-1.75z" fill="#385b6b"/>
    <path d="m353.85 203.2-12 .75q2.87 31.22 3 62.52h10.75q-.39-31.64-1.75-63.27z" fill="#385b6b"/>
    <path d="m426.1 199.12-12 1.14q2.87 47.81 3 95.75h10.76q-.38-48.45-1.76-96.89z" fill="#385b6b"/>
    <path d="m319.66 207.82c42.53 1.71 85.27 1.52 127.82-.58 2.22-.11 4.7-.31 6.13-1.46a4.26 4.26 0 0 0 1.36-3.42 668.09 668.09 0 0 0 .43-70.9c-.19-3.89-4.91-7-10.77-7.09-41.46-.79-83 .19-124.36 2.94-5.69.38-10.09 3.52-10.2 7.32l-2 65.47c-.06 1.82-.05 3.78 1.54 5.25 2.16 1.99 6.39 2.33 10.05 2.47z" fill="#272525" opacity=".08"/>
    <path d="m378 170.2c-16.74-6.43-33.22-15.42-45.5-28.66-4.77-5.15-10.17-12.06-17.06-14.42-3.57 1.24-6 3.69-6.1 6.5l-2 65.47c-.06 1.82-.05 3.79 1.55 5.25 2.16 2 6.35 2.33 10.05 2.48 42.53 1.71 85.27 1.51 127.82-.58 2.22-.11 4.71-.31 6.14-1.46a4.31 4.31 0 0 0 1.35-3.43q.6-10.2.89-20.4c-26.25.5-52.51-1.27-77.14-10.75z" fill="#272525" opacity=".08"/>
    <path d="m357 243a5.62 5.62 0 0 0 1.91-2.32 10.34 10.34 0 0 0 -13.06-14.2c-.82.92-2.14 1.13-3.25 1.66-4.1 1.95-4.43 8.27-1.43 11.69s8 4.36 12.52 4a6.87 6.87 0 0 0 3.31-.83z" fill="#97a8b2"/>
    <path d="m428.78 248a5.62 5.62 0 0 0 1.91-2.32 10.34 10.34 0 0 0 -13.06-14.19c-.82.91-2.14 1.13-3.25 1.65-4.11 1.95-4.43 8.27-1.43 11.69s8 4.37 12.52 4.05a6.88 6.88 0 0 0 3.31-.88z" fill="#97a8b2"/>
    <path d="m259.25 390.91a16.05 16.05 0 0 0 -3.65-8.36 14.42 14.42 0 0 0 -16.16-3.95c-1.16 1.38-3 1.71-4.6 2.5-3.82 1.92-5.32 6.67-4.72 11.17 9.73-.19 19.43-.69 29.13-1.36z" fill="#97a8b2"/>
    <path d="m226.49 392.61.84 2.43a269.65 269.65 0 0 0 34.22-1.1c.12-.83.53-1.58.67-2.41a2 2 0 0 0 -.82-2.17 2.53 2.53 0 0 0 -1.19-.14 272.17 272.17 0 0 0 -33.72 3.39z" fill="#ffbe4a"/>
    <path d="m420.79 151.38a6.15 6.15 0 0 0 2.18 3.17 7.79 7.79 0 0 0 11.89-2.81 10.92 10.92 0 0 0 .9-3.7 6.11 6.11 0 0 0 -.22-2.66 4.71 4.71 0 0 0 -1.79-2.16 6.92 6.92 0 0 0 -5.3-1.11c-1.14.23-2.21.75-3.36 1a6.12 6.12 0 0 0 -1.42.33 3.19 3.19 0 0 0 -1.14 1 9.17 9.17 0 0 0 -1.76 4.05 7.1 7.1 0 0 0 .02 2.89z" fill="#2f3f47"/>
    <path d="m422.91 150.73a4.31 4.31 0 0 0 1.56 2.26 5.55 5.55 0 0 0 8.49-2 7.81 7.81 0 0 0 .65-2.65 4.5 4.5 0 0 0 -.16-1.9 3.42 3.42 0 0 0 -1.28-1.54 5 5 0 0 0 -3.79-.8c-.81.17-1.58.54-2.4.69a3.82 3.82 0 0 0 -1 .24 2.4 2.4 0 0 0 -.82.7 6.67 6.67 0 0 0 -1.25 2.9 5 5 0 0 0 0 2.1z" fill="#e0922f"/>
    <path d="m330.92 151.38a6.07 6.07 0 0 0 2.17 3.17 7.79 7.79 0 0 0 11.91-2.81 11.17 11.17 0 0 0 .91-3.7 6.26 6.26 0 0 0 -.23-2.66 4.75 4.75 0 0 0 -1.78-2.16 6.94 6.94 0 0 0 -5.31-1.11c-1.14.23-2.21.75-3.36 1a6.24 6.24 0 0 0 -1.42.33 3.27 3.27 0 0 0 -1.14 1 9.15 9.15 0 0 0 -1.75 4.05 6.78 6.78 0 0 0 0 2.89z" fill="#2f3f47"/>
    <path d="m333 150.73a4.29 4.29 0 0 0 1.55 2.26 5.56 5.56 0 0 0 8.5-2 8 8 0 0 0 .64-2.65 4.2 4.2 0 0 0 -.16-1.9 3.4 3.4 0 0 0 -1.27-1.54 5 5 0 0 0 -3.79-.8c-.82.17-1.58.54-2.4.69a3.89 3.89 0 0 0 -1 .24 2.28 2.28 0 0 0 -.81.7 6.57 6.57 0 0 0 -1.26 2.9 5 5 0 0 0 0 2.1z" fill="#e0922f"/>
    <path d="m259.14 393.21c1.38 4.24-1.49 9-5.41 11.06s-8.59 2.22-13 2.06a14.83 14.83 0 0 1 -5.74-1 8.1 8.1 0 0 1 -4.46-6.77c-.2-3.33 1.71-3.75 4.6-3.89q12.01-.59 24.01-1.46z" fill="#97a8b2"/>
    <path d="m249.77 265.22c-5.12-1.27-10.8-.94-15.33 1.75s-7.66 8-7 13.22c.53 4.13 3.23 7.68 6.38 10.4a13.5 13.5 0 0 0 4.17 2.63 11.18 11.18 0 0 0 4.3.55 16.15 16.15 0 0 0 13.1-8.16c2.48-4.47 1.8-8.69 1.18-13.48-.57-4.21-2.49-5.84-6.8-6.91z" fill="#97a8b2"/>
    <path d="m239.62 274.68a6.19 6.19 0 0 0 -1.7 3.8 2.21 2.21 0 0 0 .11 1.2 2.42 2.42 0 0 0 .58.69 8.53 8.53 0 0 0 3 1.93 5.16 5.16 0 0 0 6.68-4 3.39 3.39 0 0 0 -.5-2.64c-1.69-2.3-6.1-2.97-8.17-.98z" fill="#6e7b82"/>
    <path d="m241.35 276.64a.61.61 0 0 0 0 .11 1.53 1.53 0 0 0 -.35 1.25 1.84 1.84 0 0 0 1.46 1.55 1.74 1.74 0 0 0 1.86-1.24c.46-1.68-2.02-3.46-2.97-1.67z" fill="#3c4447"/>
    <path d="m339.82 286.48a15.67 15.67 0 0 1 -5-9.83 12.53 12.53 0 0 1 .42-5.24 15 15 0 0 1 2.7-4.7 17.18 17.18 0 0 1 7.21-5.69 16.27 16.27 0 0 1 4.32-.88 12.17 12.17 0 0 1 4 .23 12 12 0 0 1 4.39 2.4c3.23 2.58 5.87 6.15 6.43 10.25a15.75 15.75 0 0 1 -2.69 10.42 14.56 14.56 0 0 1 -21.78 3.04z" fill="#97a8b2"/>
    <path d="m353.4 271.66a5.6 5.6 0 0 0 -4.93-1.4 3.63 3.63 0 0 0 -.8.34 3.13 3.13 0 0 0 -1.06.33c-1.33.74-1.63 2.4-1.61 3.79a4.91 4.91 0 0 0 6.61 5.2c3.12-1.37 4.56-5.92 1.79-8.26z" fill="#6e7b82"/>
    <path d="m350.94 273.93a1.31 1.31 0 0 0 -.58-.38 1.64 1.64 0 0 0 -2.46 1.22 2.25 2.25 0 0 0 .87 2c.79.59 1.47.24 2-.46a1.9 1.9 0 0 0 .17-2.38z" fill="#3c4447"/>
    <path d="m231.61 403.11a4.51 4.51 0 0 0 -3.11 2.46c-.79 1.32-1.33 3-.6 4.36a4.54 4.54 0 0 0 3.54 1.95 3.36 3.36 0 0 0 1.89-.15 3.88 3.88 0 0 0 1.7-2.67c.36-1.24.69-2.63.05-3.74s-2.08-2.32-3.47-2.21z" fill="#385b6b"/>
    <path d="m251.25 406.57a2.72 2.72 0 0 0 .15 1.87 3.16 3.16 0 0 0 1 1.07 5 5 0 0 0 1.47.75 3.68 3.68 0 0 0 3.18-.66 4.74 4.74 0 0 0 1.68-2.84 3 3 0 0 0 0-1.31c-1.26-4.92-6.67-2.76-7.48 1.12z" fill="#385b6b"/>
    <path d="m229.73 408a2 2 0 0 0 -.57 1.28.68.68 0 0 0 0 .4.74.74 0 0 0 .2.23 2.87 2.87 0 0 0 1 .65 1.74 1.74 0 0 0 2.25-1.35 1.15 1.15 0 0 0 -.17-.89 2 2 0 0 0 -2.71-.32z" fill="#6e7b82"/>
    <path d="m230.31 408.63a0 0 0 0 0 0 0 .54.54 0 0 0 -.11.41.63.63 0 0 0 .49.53.59.59 0 0 0 .63-.42c.15-.53-.69-1.15-1.01-.52z" fill="#3c4447"/>
    <path d="m254.56 406.45a2.07 2.07 0 0 0 -.57 1.28.68.68 0 0 0 0 .4.83.83 0 0 0 .19.23 2.87 2.87 0 0 0 1 .65 1.81 1.81 0 0 0 1.44-.16 1.78 1.78 0 0 0 .81-1.19 1.17 1.17 0 0 0 -.16-.9 2.06 2.06 0 0 0 -2.71-.31z" fill="#6e7b82"/>
    <path d="m255.14 407.11a0 0 0 0 1 0 0 .49.49 0 0 0 -.1.41.61.61 0 0 0 .49.52.56.56 0 0 0 .62-.41c.15-.53-.69-1.13-1.01-.52z" fill="#3c4447"/>
    <path d="m437.39 295.85a13.9 13.9 0 0 0 -.89-4.75c-1.07-2.5-3.27-4.3-5.39-6a12.91 12.91 0 0 0 -3.05-2 12.66 12.66 0 0 0 -5.45-.54c-2.78.15-5.69.37-8 1.88a15.53 15.53 0 0 0 -3.61 3.56 16.07 16.07 0 0 0 -2.27 3.41 13.68 13.68 0 0 0 -1 5 19.18 19.18 0 0 0 .58 5.8 13.74 13.74 0 0 0 6.22 8.05 4.29 4.29 0 0 0 2.17.7l2.28 1.14c4.5.54 9-1.25 12.66-3.95a14.06 14.06 0 0 0 5.06-6.12 15.67 15.67 0 0 0 .69-6.18z" fill="#97a8b2"/>
    <path d="m426.27 293.49c-2.24-2.66-6.37-1.69-7.74 1.32a2 2 0 0 0 -.14.37 5.13 5.13 0 0 0 -.39 1.43 3.91 3.91 0 0 0 .78 2.78 3.64 3.64 0 0 0 1.35 1.47l.16.14a4.84 4.84 0 0 0 4.39.62c3.58-.87 3.64-5.69 1.59-8.13z" fill="#6e7b82"/>
    <path d="m423.42 295.54a1.32 1.32 0 0 0 -1.1 0 1.16 1.16 0 0 0 -1.29.79 1.35 1.35 0 0 0 .17 1.14 1.65 1.65 0 0 0 .59 1.06 1.44 1.44 0 0 0 2.22-.35 1.9 1.9 0 0 0 -.59-2.64z" fill="#3c4447"/>
    <path d="m494.26 284.94c-5.12-1.27-10.8-.94-15.33 1.75s-7.66 8-7 13.23c.53 4.12 3.23 7.67 6.38 10.39a13.32 13.32 0 0 0 4.17 2.63 11.18 11.18 0 0 0 4.3.55 16.15 16.15 0 0 0 13.1-8.16c2.48-4.47 1.8-8.68 1.18-13.48-.53-4.21-2.49-5.85-6.8-6.91z" fill="#97a8b2"/>
    <path d="m484.11 294.41a6.19 6.19 0 0 0 -1.7 3.79 2.25 2.25 0 0 0 .11 1.21 2.39 2.39 0 0 0 .59.68 8.4 8.4 0 0 0 3 1.93 5.16 5.16 0 0 0 6.68-4 3.42 3.42 0 0 0 -.5-2.65c-1.7-2.28-6.11-2.95-8.18-.96z" fill="#6e7b82"/>
    <path d="m485.84 296.37a.38.38 0 0 0 0 .1 1.53 1.53 0 0 0 -.32 1.22 1.84 1.84 0 0 0 1.46 1.55 1.73 1.73 0 0 0 1.86-1.24c.43-1.65-2.05-3.43-3-1.63z" fill="#3c4447"/>
    <path d="m476 353.58a1.08 1.08 0 0 1 1.28-1.33l17.24-1a20.88 20.88 0 0 1 7.73.54 2.67 2.67 0 0 1 1.22.7 2.87 2.87 0 0 1 .44 2.06 24.44 24.44 0 0 1 -.49 3.72 2.08 2.08 0 0 1 -.47 1.08 2 2 0 0 1 -.78.42 19.25 19.25 0 0 1 -5.62.75c-5 .18-10 .25-15 .24-1.47 0-4 .5-5.07-.85s-.48-4.68-.48-6.33z" fill="#97a8b2"/>
    <path d="m509.7 360.48a2.25 2.25 0 0 1 1 .26c.67.44.66 1.4.58 2.2a1.37 1.37 0 0 1 -.28.82 1.33 1.33 0 0 1 -1 .29l-13.13.35-25.51.67a2.22 2.22 0 0 1 -1.33-.25 2.19 2.19 0 0 1 -.56-2 1.94 1.94 0 0 1 .57-1.54 1.89 1.89 0 0 1 1.05-.24c4.57-.15 9.11-.82 13.69-1 5.33-.24 10.67-.26 16-.06 2.99.08 5.98.5 8.92.5z" fill="#ffbe4a"/>
    <path d="m617 231a359.23 359.23 0 0 0 91.66-1.19c1.6-.23 3.38-.64 4.41-3 .83-1.91.92-4.57 1-7q1.5-72.79.31-145.62c-.14-8-3.52-14.34-7.72-14.57-29.74-1.62-62.26-3.66-91.91 2-4.07.78-4.52 11.29-4.6 19.08l-1.45 134.49c0 3.74 0 7.77 1.11 10.78 1.51 4.03 4.51 4.74 7.19 5.03z" fill="#97a8b2"/>
    <path d="m659.67 179.11c-8.19.87-15.26 6.87-18.9 14.27a36.37 36.37 0 0 0 -3.4 12.13c-.35 3.21-1.38 7.56-.06 10.65 1.5 3.49 8.52 2.4 11.7 2.57q16.29.84 32.62.29a5.21 5.21 0 0 0 2.54-.53c.86-.53 1.61-2.75 2.05-3.75a10.88 10.88 0 0 0 .6-4.67 38.15 38.15 0 0 0 -1.74-9.14c-1.37-4.67-3.07-9.35-6-13.21a22.14 22.14 0 0 0 -19.41-8.61z" fill="#fff"/>
    <path d="m684.45 147.89a6.38 6.38 0 0 0 -3.33 2.28 8.19 8.19 0 0 0 3 12.5 11.57 11.57 0 0 0 3.89 1 6.45 6.45 0 0 0 2.8-.24 4.92 4.92 0 0 0 2.27-1.87 7.34 7.34 0 0 0 1.17-5.57c-.25-1.21-.79-2.33-1-3.54a6.32 6.32 0 0 0 -.34-1.49 3.43 3.43 0 0 0 -1-1.2 9.75 9.75 0 0 0 -4.26-1.84 7.16 7.16 0 0 0 -3.2-.03z" fill="#2f3f47"/>
    <path d="m685.14 150.11a4.63 4.63 0 0 0 -2.39 1.64 5.86 5.86 0 0 0 2.11 8.93 8.58 8.58 0 0 0 2.79.68 4.6 4.6 0 0 0 2-.17 3.54 3.54 0 0 0 1.62-1.34 5.25 5.25 0 0 0 .84-4c-.17-.86-.56-1.67-.72-2.53a4.9 4.9 0 0 0 -.25-1.07 2.44 2.44 0 0 0 -.75-.85 6.88 6.88 0 0 0 -3-1.32 5.31 5.31 0 0 0 -2.25.03z" fill="#98b99d"/>
    <path d="m684.45 126a6.4 6.4 0 0 0 -3.34 2.28 8.19 8.19 0 0 0 2.95 12.5 11.62 11.62 0 0 0 3.9.95 6.4 6.4 0 0 0 2.79-.24 5 5 0 0 0 2.27-1.87 7.36 7.36 0 0 0 1.17-5.58c-.24-1.2-.79-2.32-1-3.53a6.74 6.74 0 0 0 -.35-1.49 3.33 3.33 0 0 0 -1-1.2 9.72 9.72 0 0 0 -4.25-1.85 7.31 7.31 0 0 0 -3.14.03z" fill="#2f3f47"/>
    <path d="m685.13 128.22a4.56 4.56 0 0 0 -2.38 1.64 5.84 5.84 0 0 0 2.1 8.92 8.1 8.1 0 0 0 2.79.68 4.6 4.6 0 0 0 2-.16 3.57 3.57 0 0 0 1.63-1.35 5.2 5.2 0 0 0 .83-4c-.17-.86-.56-1.66-.72-2.52a4.77 4.77 0 0 0 -.25-1.07 2.45 2.45 0 0 0 -.74-.86 6.9 6.9 0 0 0 -3-1.31 5.15 5.15 0 0 0 -2.26.03z" fill="#98b99d"/>
    <path d="m703.53 198.22c-8.53 2.61-17.11 1.58-25.67.86s-17.37-1.73-26-4.74c-5.88-2.05-12-2.91-17.68-7.54-5-4-10.35-11.12-13-24.56-2.32-11.75-2.72-25.68-3.31-38.81-.52-11.61-.78-29.37-4.33-37.28-1.11-2.49-2.23-3.16-3.31-2.65l-1.39 129.06c0 3.74 0 7.77 1.11 10.78 1.56 4.09 4.56 4.78 7.21 5.08a359.3 359.3 0 0 0 91.67-1.19c1.6-.23 3.38-.64 4.4-3 .84-1.91.93-4.57 1-7q.25-12.18.42-24.36c-3.73 1.29-7.37 4.21-11.12 5.35z" fill="#272525" opacity=".08"/>
    <path d="m689.57 121.11a6.41 6.41 0 0 0 3.24-2.42 8.18 8.18 0 0 0 -3.45-12.37 11.48 11.48 0 0 0 -3.94-.79 6.38 6.38 0 0 0 -2.78.35 5 5 0 0 0 -2.19 2 7.33 7.33 0 0 0 -.94 5.61c.29 1.19.88 2.3 1.16 3.49a5.81 5.81 0 0 0 .41 1.48 3.39 3.39 0 0 0 1.08 1.15 9.62 9.62 0 0 0 4.33 1.67 7.11 7.11 0 0 0 3.08-.17z" fill="#2f3f47"/>
    <path d="m688.8 118.91a4.52 4.52 0 0 0 2.31-1.73 5.85 5.85 0 0 0 -2.46-8.84 8.47 8.47 0 0 0 -2.82-.56 4.57 4.57 0 0 0 -2 .25 3.49 3.49 0 0 0 -1.57 1.4 5.26 5.26 0 0 0 -.67 4c.21.85.63 1.64.82 2.49a4.77 4.77 0 0 0 .3 1.06 2.32 2.32 0 0 0 .77.82 6.82 6.82 0 0 0 3.09 1.19 5.14 5.14 0 0 0 2.23-.08z" fill="#aa6a64"/>
    <path d="m694.18 89.83a6.4 6.4 0 0 0 -1.89-3.57 8.18 8.18 0 0 0 -12.75 1.5 11.53 11.53 0 0 0 -1.39 3.76 6.47 6.47 0 0 0 -.09 2.8 5 5 0 0 0 1.61 2.48 7.31 7.31 0 0 0 5.4 1.79c1.22-.1 2.4-.51 3.63-.6a6.45 6.45 0 0 0 1.52-.18 3.33 3.33 0 0 0 1.31-.89 9.72 9.72 0 0 0 2.32-4 7.28 7.28 0 0 0 .33-3.09z" fill="#2f3f47"/>
    <path d="m691.89 90.25a4.61 4.61 0 0 0 -1.35-2.55 5.84 5.84 0 0 0 -9.11 1.08 8.24 8.24 0 0 0 -1 2.69 4.66 4.66 0 0 0 -.06 2 3.64 3.64 0 0 0 1.15 1.76 5.24 5.24 0 0 0 3.86 1.29c.87-.08 1.72-.37 2.59-.43a4.93 4.93 0 0 0 1.09-.13 2.5 2.5 0 0 0 .94-.64 6.89 6.89 0 0 0 1.65-2.87 5.14 5.14 0 0 0 .24-2.2z" fill="#aa6a64"/>
    <path d="m814.77 99.65a6.38 6.38 0 0 0 3.33-2.28 8.19 8.19 0 0 0 -3-12.5 11.57 11.57 0 0 0 -3.89-1 6.45 6.45 0 0 0 -2.8.24 4.92 4.92 0 0 0 -2.22 1.89 7.34 7.34 0 0 0 -1.19 5.6c.25 1.21.79 2.33 1 3.54a6.32 6.32 0 0 0 .34 1.49 3.52 3.52 0 0 0 1 1.2 9.75 9.75 0 0 0 4.26 1.84 7.16 7.16 0 0 0 3.17-.02z" fill="#2f3f47"/>
    <path d="m814.08 97.42a4.55 4.55 0 0 0 2.39-1.63 5.86 5.86 0 0 0 -2.11-8.93 8.58 8.58 0 0 0 -2.79-.68 4.6 4.6 0 0 0 -2 .17 3.54 3.54 0 0 0 -1.57 1.34 5.25 5.25 0 0 0 -.84 4c.17.86.56 1.67.72 2.53a4.9 4.9 0 0 0 .25 1.07 2.44 2.44 0 0 0 .75.85 6.88 6.88 0 0 0 3 1.32 5.14 5.14 0 0 0 2.2-.04z" fill="#aa6a64"/>
    <path d="m814.77 121.54a6.4 6.4 0 0 0 3.34-2.28 8.19 8.19 0 0 0 -3-12.5 11.62 11.62 0 0 0 -3.9-1 6.4 6.4 0 0 0 -2.79.24 5 5 0 0 0 -2.27 1.87 7.36 7.36 0 0 0 -1.15 5.63c.24 1.2.79 2.32 1 3.53a6.74 6.74 0 0 0 .35 1.49 3.33 3.33 0 0 0 1 1.2 9.78 9.78 0 0 0 4.25 1.85 7.31 7.31 0 0 0 3.17-.03z" fill="#2f3f47"/>
    <path d="m814.09 119.32a4.56 4.56 0 0 0 2.38-1.64 5.84 5.84 0 0 0 -2.1-8.92 8.1 8.1 0 0 0 -2.79-.68 4.6 4.6 0 0 0 -2 .16 3.57 3.57 0 0 0 -1.63 1.35 5.2 5.2 0 0 0 -.83 4c.17.86.56 1.66.72 2.52a4.77 4.77 0 0 0 .25 1.07 2.45 2.45 0 0 0 .74.86 7 7 0 0 0 3 1.31 5.15 5.15 0 0 0 2.26-.03z" fill="#aa6a64"/>
    <path d="m809.65 126.43a6.36 6.36 0 0 0 -3.24 2.42 8.18 8.18 0 0 0 3.45 12.37 11.72 11.72 0 0 0 3.94.79 6.53 6.53 0 0 0 2.78-.35 5 5 0 0 0 2.19-2 7.33 7.33 0 0 0 .94-5.61c-.29-1.19-.88-2.3-1.16-3.49a5.81 5.81 0 0 0 -.41-1.48 3.39 3.39 0 0 0 -1.08-1.15 9.62 9.62 0 0 0 -4.33-1.67 7.11 7.11 0 0 0 -3.08.17z" fill="#2f3f47"/>
    <path d="m810.42 128.63a4.52 4.52 0 0 0 -2.31 1.73 5.85 5.85 0 0 0 2.46 8.84 8.47 8.47 0 0 0 2.82.56 4.57 4.57 0 0 0 2-.25 3.51 3.51 0 0 0 1.57-1.41 5.23 5.23 0 0 0 .67-4c-.21-.85-.63-1.64-.82-2.49a4.77 4.77 0 0 0 -.3-1.06 2.32 2.32 0 0 0 -.77-.82 6.82 6.82 0 0 0 -3.09-1.19 5.14 5.14 0 0 0 -2.23.09z" fill="#98b99d"/>
    <path d="m805 157.71a6.4 6.4 0 0 0 1.89 3.57 8.18 8.18 0 0 0 12.75-1.5 11.5 11.5 0 0 0 1.39-3.77 6.46 6.46 0 0 0 .09-2.8 5 5 0 0 0 -1.61-2.47 7.31 7.31 0 0 0 -5.4-1.79c-1.22.1-2.4.51-3.63.6a6.45 6.45 0 0 0 -1.52.18 3.33 3.33 0 0 0 -1.31.89 9.72 9.72 0 0 0 -2.32 4 7.28 7.28 0 0 0 -.33 3.09z" fill="#2f3f47"/>
    <path d="m807.33 157.29a4.61 4.61 0 0 0 1.35 2.55 5.86 5.86 0 0 0 9.11-1.08 8.24 8.24 0 0 0 1-2.69 4.66 4.66 0 0 0 .06-2 3.64 3.64 0 0 0 -1.15-1.76 5.24 5.24 0 0 0 -3.86-1.29c-.87.08-1.72.37-2.59.43a4.93 4.93 0 0 0 -1.09.13 2.5 2.5 0 0 0 -.94.64 6.89 6.89 0 0 0 -1.65 2.87 5.14 5.14 0 0 0 -.24 2.2z" fill="#98b99d"/>
    <path d="m610.8 179.45q-.19-1.81-.36-3.63c.18-7.39-.14-14.83-.54-22.22.08-1.93.18-3.85.31-5.78.3-4.26-6.29-4.95-6.63-.66a178.65 178.65 0 0 0 .54 33.35c.48 4.34 7.17 3.26 6.68-1.06z" fill="#738087"/>
    <path d="m545.11 151.05c1.51-2.41 2.79-4.11 5.36-4.12 19.49-.05 36.92-.27 53.74 0 .59 0 .14.09.61.51s.19 1.5.36 2.19c1.49 6.14.52 12.68.81 19a34.88 34.88 0 0 1 .06 5.31c-.2 1.75.16 5-1.07 6s-2.93 1.06-4.53 1.14c-15.17.69-31.43 1.37-46.58.34-2.25-.15-5.58.68-7.32-1s-2.34-4.11-2.52-6.57c-.14-1.85.16-3.76-.1-5.6-.16-1.17.27-5.44.07-6.61-.52-3.02-.58-7.92 1.11-10.59z" fill="#4e6875"/>
    <path d="m548.82 179.44c-.14-1.22-.26-2.43-.37-3.64.14-7.39-.2-14.82-.63-22.21.07-1.93.16-3.86.29-5.78.28-4.27-6.31-4.93-6.63-.63a176.87 176.87 0 0 0 .67 33.34c.49 4.34 7.17 3.24 6.67-1.08z" fill="#97a8b2"/>
    <path d="m769.64 188.3a29.4 29.4 0 0 1 18.65-15.53c3.61-.9 7.58-1 10.93.63a15.81 15.81 0 0 1 4.89 3.95 24.57 24.57 0 0 1 4.09 6.65 48.93 48.93 0 0 1 2.8 11.66q1 6.39 1.93 12.78c.24 1.59.4 3.44-.74 4.56a5.08 5.08 0 0 1 -3.17 1.07q-9.4.93-18.85 1.1c-5.57.11-13.94 1.38-19.23-.49-8.94-3.16-4.37-20.2-1.3-26.38z" fill="#fff"/>
    <path d="m748.33 90.49c1.34 1.76 1.7 4.05 2 6.24q2.55 18.06 5.11 36.1c1.78 12.61 3.61 25.38 8.44 37.17s13.12 22.69 24.62 28.08c13 6.06 28.08 4.44 42.37 5.68a5.6 5.6 0 0 1 3.38 1.09c1.11 1 1.22 2.72 1.26 4.23.06 2.5.11 5 .17 7.49s0 5.28-1.85 6.94c-1.43 1.29-3.49 1.48-5.4 1.62q-37.24 2.55-74.59 3.2a6.55 6.55 0 0 1 -3.7-.66c-1.7-1.08-2-3.39-2.19-5.4q-.95-12.12-1.95-24.27c-1.07-13.52-2.13-27-2.91-40.59q-1.17-20.59-1.46-41.23c-.09-6.68-.13-13.38 0-20.07.03-3.59 1.57-12.33 6.7-5.62z" fill="#272525" opacity=".08"/>
    <path d="m742.83 109c-.06-.49-.1-1-.15-1.49.07-3-.06-6.07-.22-9.1 0-.79.07-1.57.13-2.36.12-1.75-2.58-2-2.72-.27a73.35 73.35 0 0 0 .22 13.66c.2 1.79 2.91 1.35 2.74-.44z" fill="#738087"/>
    <path d="m715.92 97.39c.62-1 1.14-1.69 2.2-1.69 8 0 15.12-.11 22 0 .24 0 .06 0 .25.21s.08.62.15.9c.61 2.52.21 5.19.33 7.8a14.44 14.44 0 0 1 0 2.18c-.08.71.07 2-.44 2.47a2.85 2.85 0 0 1 -1.85.47 173.5 173.5 0 0 1 -19.08.14c-.92-.06-2.28.28-3-.4a4.16 4.16 0 0 1 -1-2.69c-.06-.76.06-1.55 0-2.3-.07-.48.11-2.23 0-2.71a7.14 7.14 0 0 1 .44-4.38z" fill="#4e6875"/>
    <path d="m717.44 109-.15-1.49c.06-3-.08-6.08-.26-9.1q0-1.19.12-2.37a1.37 1.37 0 0 0 -2.72-.26 72.5 72.5 0 0 0 .28 13.66c.2 1.8 2.94 1.35 2.73-.44z" fill="#97a8b2"/>
    <path d="m741.89 150.67c-.06-.5-.11-1-.15-1.49.07-3-.06-6.07-.22-9.1 0-.79.07-1.58.13-2.37a1.37 1.37 0 0 0 -2.72-.26 72.39 72.39 0 0 0 .22 13.65c.19 1.78 2.94 1.34 2.74-.43z" fill="#738087"/>
    <path d="m715 139c.62-1 1.14-1.69 2.2-1.69 8 0 15.12-.11 22 0 .24 0 0 0 .25.21s.08.61.14.9c.61 2.51.22 5.19.33 7.8a13.12 13.12 0 0 1 0 2.17c-.08.72.07 2.05-.44 2.48a2.86 2.86 0 0 1 -1.85.46 171.1 171.1 0 0 1 -19.08.15c-.92-.07-2.29.27-3-.41a4.12 4.12 0 0 1 -1-2.69c-.06-.75.06-1.54 0-2.29-.07-.48.11-2.23 0-2.71a7.14 7.14 0 0 1 .45-4.38z" fill="#4e6875"/>
    <path d="m716.5 150.66c-.06-.49-.11-1-.15-1.48.06-3-.08-6.08-.26-9.1 0-.79.06-1.58.12-2.37.11-1.75-2.59-2-2.72-.26a72.5 72.5 0 0 0 .28 13.66c.23 1.77 2.94 1.32 2.73-.45z" fill="#97a8b2"/>
    <path d="m742.83 191c-.06-.49-.1-1-.15-1.48.07-3-.06-6.08-.22-9.1 0-.79.07-1.58.13-2.37.12-1.75-2.58-2-2.72-.27a73.35 73.35 0 0 0 .22 13.66c.2 1.75 2.91 1.31 2.74-.44z" fill="#738087"/>
    <path d="m715.92 179.35c.62-1 1.14-1.68 2.2-1.69 8 0 15.12-.11 22 0 .24 0 .06 0 .25.2s.08.62.15.9c.61 2.52.21 5.2.33 7.8a14.44 14.44 0 0 1 0 2.18c-.08.72.07 2-.44 2.47a2.85 2.85 0 0 1 -1.85.47 173.5 173.5 0 0 1 -19.08.14c-.92-.06-2.28.28-3-.4a4.14 4.14 0 0 1 -1-2.69c-.06-.76.06-1.54 0-2.29-.07-.49.11-2.24 0-2.71a7.16 7.16 0 0 1 .44-4.38z" fill="#4e6875"/>
    <path d="m717.44 191-.15-1.49c.06-3-.08-6.07-.26-9.1q0-1.19.12-2.37a1.37 1.37 0 0 0 -2.72-.25 72.39 72.39 0 0 0 .28 13.65c.2 1.76 2.94 1.31 2.73-.44z" fill="#97a8b2"/>
    <path d="m689.44 3.16a10.45 10.45 0 0 1 6.37-1.92c23.11 0 43.8-.12 63.76 0 .7 0 .16 0 .72.24s.23.7.43 1c1.76 2.86.62 5.9 1 8.87a6.38 6.38 0 0 1 .07 2.46c-.24.82.19 2.33-1.27 2.82a19.38 19.38 0 0 1 -5.38.53c-18 .32-37.28.64-55.26.16-2.67-.07-6.62.31-8.68-.46a4.18 4.18 0 0 1 -3-3.06c-.16-.86.19-1.75-.12-2.6-.19-.55.32-2.54.09-3.08a3.87 3.87 0 0 1 1.27-4.96z" fill="#4e6875"/>
    <path d="m690 16.37c-.07-.56-.12-1.13-.18-1.69.07-3.44-.09-6.9-.29-10.34 0-.9.07-1.79.14-2.69.13-2-2.94-2.29-3.09-.29a83 83 0 0 0 .31 15.52c.27 2.01 3.38 1.5 3.11-.51z" fill="#97a8b2"/>
    <path d="m651.33 59.83c.56-.07 1.12-.12 1.69-.17 3.44.08 6.9-.07 10.34-.25.9 0 1.79.08 2.69.14 2 .14 2.3-2.93.31-3.08a82.22 82.22 0 0 0 -15.53.25c-2.02.22-1.51 3.33.5 3.11z" fill="#738087"/>
    <path d="m664.55 29.25c1.12.7 1.91 1.3 1.91 2.5 0 9.06.13 17.18 0 25 0 .27 0 .06-.23.28s-.7.09-1 .17c-2.85.69-5.9.24-8.86.37a15.67 15.67 0 0 1 -2.47 0c-.82-.09-2.33.08-2.81-.49a3.21 3.21 0 0 1 -.53-2.11 193.61 193.61 0 0 1 -.16-21.68c.07-1-.32-2.6.45-3.41a4.72 4.72 0 0 1 3.06-1.17c.86-.07 1.75.07 2.61-.05.54-.07 2.53.13 3.08 0 1.4-.17 3.7-.19 4.95.59z" fill="#4e6875"/>
    <path d="m651.33 31 1.7-.18c3.44.07 6.9-.09 10.34-.29.89 0 1.79.07 2.69.14 2 .13 2.29-2.94.29-3.09a83 83 0 0 0 -15.52.31c-2.02.21-1.51 3.32.5 3.11z" fill="#97a8b2"/>
    <path d="m785.37 62.1 1.69-.17c3.44.08 6.9-.06 10.34-.25.9 0 1.8.08 2.69.14 2 .14 2.31-2.92.31-3.08a83 83 0 0 0 -15.52.25c-2.02.22-1.52 3.33.49 3.11z" fill="#738087"/>
    <path d="m798.59 31.52c1.12.71 1.91 1.3 1.92 2.5 0 9.07.12 17.18 0 25 0 .28 0 .06-.24.28s-.7.09-1 .17c-2.86.69-5.9.24-8.87.38a15.67 15.67 0 0 1 -2.47 0c-.81-.09-2.32.08-2.81-.49a3.31 3.31 0 0 1 -.53-2.11 196 196 0 0 1 -.16-21.68c.07-1.05-.31-2.6.46-3.41a4.69 4.69 0 0 1 3-1.17c.87-.06 1.76.07 2.61-.05.55-.07 2.54.13 3.08 0 1.49-.18 3.77-.2 5.01.58z" fill="#4e6875"/>
    <path d="m785.38 33.25 1.69-.17c3.44.06 6.9-.1 10.34-.3.9 0 1.79.08 2.69.14 2 .13 2.29-2.94.29-3.09a83 83 0 0 0 -15.52.31c-2.02.23-1.5 3.34.51 3.11z" fill="#97a8b2"/>
    <path d="m736.39 16.38c-.06-.57-.12-1.13-.17-1.69.09-3.44-.06-6.91-.25-10.35 0-.89.08-1.79.15-2.68.14-2-2.93-2.31-3.09-.31a83 83 0 0 0 .25 15.52c.22 2.02 3.34 1.52 3.11-.49z" fill="#97a8b2"/>
    <path d="m759.8 16.38c-.06-.57-.12-1.13-.17-1.69.08-3.44-.07-6.91-.25-10.35 0-.89.08-1.79.14-2.68.14-2-2.93-2.31-3.08-.31a82.13 82.13 0 0 0 .25 15.52c.22 2.02 3.31 1.52 3.11-.49z" fill="#97a8b2"/>
    <path d="m713 16.38c-.07-.57-.12-1.13-.17-1.69.08-3.44-.07-6.91-.25-10.35 0-.89.08-1.79.14-2.68.14-2-2.93-2.31-3.08-.31a82.13 82.13 0 0 0 .25 15.52c.21 2.02 3.32 1.52 3.11-.49z" fill="#97a8b2"/>
    <path d="m542 174.12c-.09-.75-.16-1.5-.23-2.25.11-4.58-.09-9.19-.33-13.77 0-1.19.1-2.38.19-3.58.19-2.64-3.9-3.06-4.11-.4a110.57 110.57 0 0 0 .34 20.66c.24 2.68 4.38 2.02 4.14-.66z" fill="#738087"/>
    <path d="m501.25 156.52c.94-1.49 1.73-2.54 3.32-2.55 12.07 0 22.87-.16 33.29 0 .37 0 .09.06.38.31s.12.93.22 1.37c.92 3.8.32 7.85.5 11.79a21.28 21.28 0 0 1 0 3.29c-.13 1.09.1 3.1-.66 3.75a4.38 4.38 0 0 1 -2.81.7c-9.39.43-19.47.85-28.85.21-1.39-.09-3.46.42-4.54-.61a6.27 6.27 0 0 1 -1.56-4.06c-.08-1.15.1-2.34-.06-3.47-.1-.73.17-3.38 0-4.1-.24-1.94-.27-4.97.77-6.63z" fill="#4e6875"/>
    <path d="m503.55 174.11c-.09-.75-.16-1.5-.23-2.25.09-4.58-.13-9.19-.39-13.76 0-1.2.09-2.39.18-3.58.17-2.65-3.91-3.05-4.11-.39a110.46 110.46 0 0 0 .41 20.65c.31 2.69 4.45 2.01 4.14-.67z" fill="#97a8b2"/>
    <path d="m672.54 154.28a1 1 0 0 0 -.16-.67 1.16 1.16 0 0 0 -1-.3q-6.66.28-13.32.33c-2.72 0-7.26-.91-9.69.68a3.51 3.51 0 0 0 -1.5 2.43c-.42 2-.38 3.11 1.61 3.27 8 .64 16-1.21 24.06.1.05-1.95.05-3.9 0-5.84z" fill="#fff"/>
    <path d="m671.27 117.39c.06-1.94.06-3.89 0-5.83a1.13 1.13 0 0 0 -.16-.68 1.2 1.2 0 0 0 -1-.29c-4.43.19-8.87.29-13.32.33-2.71 0-7.26-.91-9.68.68a3.51 3.51 0 0 0 -1.5 2.42c-.42 2-.38 3.11 1.61 3.27 8.02.65 15.97-1.2 24.05.1z" fill="#fff"/>
    <path d="m647.24 137c1.28.67 5.06-.14 6.46-.14h17.33a.89.89 0 0 0 .68-.19.91.91 0 0 0 .12-.67l-.42-4.77a.54.54 0 0 0 -.14-.4.63.63 0 0 0 -.36-.07l-23.48.54c-.34 1.52-1.91 4.83-.19 5.7z" fill="#fff"/>
    <path d="m646.18 95.38c1.27.67 5.05-.14 6.46-.14h17.36a.89.89 0 0 0 .68-.2.86.86 0 0 0 .12-.67c-.14-1.59-.27-3.18-.41-4.77a.59.59 0 0 0 -.15-.39.55.55 0 0 0 -.36-.08l-23.48.54c-.4 1.5-1.94 4.81-.22 5.71z" fill="#fff"/>
    <path d="m799.29 154.28a1 1 0 0 0 -.16-.67 1.16 1.16 0 0 0 -1-.3q-6.66.28-13.32.33c-2.72 0-7.26-.91-9.69.68a3.51 3.51 0 0 0 -1.5 2.43c-.42 2-.38 3.11 1.61 3.27 8 .64 16-1.21 24.06.1.05-1.95.05-3.9 0-5.84z" fill="#fff"/>
    <path d="m798 117.39c.06-1.94.06-3.89 0-5.83a1.13 1.13 0 0 0 -.16-.68 1.2 1.2 0 0 0 -1-.29c-4.43.19-8.87.29-13.32.33-2.71 0-7.26-.91-9.68.68a3.51 3.51 0 0 0 -1.5 2.42c-.42 2-.38 3.11 1.61 3.27 8.05.65 15.99-1.2 24.05.1z" fill="#fff"/>
    <path d="m774 137c1.28.67 5.06-.14 6.46-.14h17.33a.89.89 0 0 0 .68-.19.91.91 0 0 0 .12-.67l-.42-4.77a.54.54 0 0 0 -.14-.4.63.63 0 0 0 -.36-.07l-23.48.54c-.35 1.52-1.92 4.83-.19 5.7z" fill="#fff"/>
    <path d="m772.93 95.38c1.27.67 5.05-.14 6.46-.14h17.32a.89.89 0 0 0 .68-.2.86.86 0 0 0 .12-.67c-.14-1.59-.27-3.18-.41-4.77a.59.59 0 0 0 -.15-.39.55.55 0 0 0 -.36-.08l-23.48.54c-.34 1.5-1.9 4.81-.18 5.71z" fill="#fff"/>
    <path d="m218.67 116.17c-3.26.46-6.5-2.16-7.16-5.38a8.68 8.68 0 0 1 3.72-8.54 10.31 10.31 0 0 1 13.86 2.57c1.82 2.68 2.41 6.45-.39 8.63-1.63 1.27-3 1.33-3.64 3.26s.14 5.44.15 7.47c0 1.27-.17 15.2-.37 15.19l-4.83-.19q.41-11.16-.26-22.31a.86.86 0 0 0 -.14-.53c-.21-.26-.61-.21-.94-.17z" fill="#eee"/>
    <path d="m220.5 113.65c-.26 0-.47-.2-.62-.41l-3.47-4.75a1.84 1.84 0 0 1 -.5-1.39c.18-.78 1.2-.94 2-.94h6.89l-3.84 7c-.1.24-.24.46-.46.49z" fill="#aa6a64"/>
    <path d="m217.54 136.24a7.36 7.36 0 0 0 -2.86 9l17.32-.34c.37-2.52.6-5.49-1.28-7.22a7.31 7.31 0 0 0 -2.73-1.4c-3.42-1.14-7.36-1.88-10.45-.04z" fill="#98b99d"/>
    <path d="m185.93 117.07c3.26.45 6.5-2.16 7.16-5.39a8.68 8.68 0 0 0 -3.73-8.54 10.31 10.31 0 0 0 -13.85 2.58c-1.82 2.68-2.41 6.45.39 8.63 1.63 1.27 3 1.33 3.64 3.26s-.15 5.43-.16 7.47c0 1.27.18 15.2.38 15.19l4.82-.19c-.26-7.44-.17-14.89.26-22.31a.92.92 0 0 1 .15-.54c.21-.23.61-.23.94-.16z" fill="#eee"/>
    <path d="m184.1 114.55c.26 0 .47-.2.62-.41 1.15-1.59 2.31-3.17 3.47-4.76a1.82 1.82 0 0 0 .5-1.38c-.18-.78-1.2-.94-2-.94h-6.89c1.28 2.33 2.55 4.67 3.83 7 .11.24.25.46.47.49z" fill="#aa6a64"/>
    <path d="m187.06 137.14a7.36 7.36 0 0 1 2.86 9l-17.31-.38c-.38-2.52-.6-5.5 1.27-7.23a7.41 7.41 0 0 1 2.74-1.39c3.38-1.14 7.38-1.84 10.44 0z" fill="#98b99d"/>
    <path d="m158.56 200.07c28.45 1.14 57 1 85.49-.39 1.49-.07 3.15-.21 4.11-1a2.87 2.87 0 0 0 .9-2.3 443.86 443.86 0 0 0 .29-47.42c-.12-2.6-3.28-4.67-7.2-4.74-27.73-.53-55.54.13-83.19 2-3.8.25-6.74 2.35-6.82 4.89l-1.34 43.79a4.18 4.18 0 0 0 1 3.52c1.48 1.33 4.28 1.58 6.76 1.65z" fill="#4e6875"/>
    <path d="m177.93 176.77c8.12 2.61 16.6 3.89 25 5.16l31.53 4.74c2.64.4 5.39.83 7.59 2.35s3.65 4.48 2.6 6.94l-68 .51a94.4 94.4 0 0 1 -16.39-.83 5.66 5.66 0 0 1 -3.7-1.71 6 6 0 0 1 -.78-3.66q0-6.81 0-13.64c0-1.94-1-11.56 1.38-11.38 1 .07 3.49 2.91 4.42 3.58a50.8 50.8 0 0 0 5.1 3.21 64.25 64.25 0 0 0 11.25 4.73z" fill="#272525" opacity=".08"/>
</svg>