<svg id="loader" xmlns="http://www.w3.org/2000/svg" viewBox="0 0 404 411.6">
  <style>
    .st0{fill:#E1FAFF;} .st1{fill:#73C8F0;} .st2{fill:#0091C8;} .st3{fill:#AFE6FF;} .st4{fill:#C8E6EB;} .st5{fill:#5046AF;} .st6{fill:#827DDC;} .st7{fill:#393499;} .st8{fill:#FFFFFF;} .st9{fill:#41B4E6;} .st10{fill:#6E64C3;} .st11{fill:#C2C2EF;} .st12{fill:#9292F7;} .st13{fill:#9A9AFC;} .st14{fill:#97F4EC;} .st15{fill:#41378C;}
  </style>
  <g id="BACKGROUND">
    <path class="st0" d="M392 407.7H12c-6.6 0-12-5.4-12-12V166.2c0-6.6 5.4-12 12-12h380c6.6 0 12 5.4 12 12v229.5c0 6.6-5.4 12-12 12z"/>
    <circle class="st1" cx="340.9" cy="154" r="52"/>
    <path class="st1" d="M129.7 140.6h64.7v130.9h-64.7z"/>
  </g>
  <g id="OBJECTS">
    <path class="st2" d="M90 277.8c-.7 5.8-4.8 8.2-10.3 8.2s-7.8-5-7.8-10.8c0-5.8 2-9.2 8.3-9.2 8.2 0 10.5 5.8 9.8 11.8z"/>
    <path class="st3" d="M399.3 411.6H4.7c-2.6 0-4.7-1.9-4.7-4.3h404c0 2.3-2.1 4.3-4.7 4.3z"/>
    <path class="st4" d="M66.9 404.3c1.8 1.1 3.9 1.9 7.4 1.5.5-1.3.4-3 0-4.8h-6.9c1.2 1.2.7 2.6-.5 3.3z"/>
    <path class="st1" d="M76.2 405.5c-.2-.4-.8-.7-1.3-.7-1.5.1-4.8.6-6.8-.8-.8-.6-1.9-.7-3-.6-3.1.5-8.7 1.5-9.5 5.8 0 0 6.7.8 11.4.1 3.8-.6 9.5-1.8 9.5-1.8 0-.6.1-1.2-.3-2z"/>
    <path class="st4" d="M99.5 404.2l-8.2 1.6c-.8-1.4-.6-3.1 0-4.8h6.9c-.5 1.3-.7 2.4 1.3 3.2z"/>
    <path class="st5" d="M40 407.5c-19.1-45.7-24.5-76.4-16-91.5 4.2-7.4 10.8-9.7 15.4-10.7 5.7-1.3 18.9-1 19.5-1v1.3c-.1 0-13.6-.3-19.1 1-4.3 1-10.6 3.1-14.5 10.1-8.3 14.7-2.9 45.1 16.1 90.4l-1.4.4z"/>
    <path class="st1" d="M62.2 309.8l-.7 8.5s-4.9-6.8-5.6-8.5c-.7-1.7-2.1-6-2.2-6.4-.1-.3-3.1-1.8-6.2-.8-.8.3-.2 2.7-.1 2.7s-1.3-.1-2.9.1c-.5.1-.6.9 1.7 1.4 1 .2 2.3 1.1 2.9 1.8 1.1 1.3 2.6 2.9 3 3.7.3.7 2.3 10 7.9 15.1 1.6 1.5 4.3 1 5.3-.9 1.3-2.5 2.8-6.7 3.1-13.8l-6.2-2.9z"/>
    <path class="st5" d="M98.9 366c-.7-11.1-.9-11.5-6-30.8-.4-1.6-1.9-2.7-3.7-2.7h-18c-1.9 0-3.4 1.2-3.7 2.9-3.3 19.4-3.5 19.9-3.5 30.9 0 10.3 2.5 34.6 2.5 34.6.9 1.3 6.7 2 8.3 1.4 0 0 1.3-21.6 1.2-30.1 0-3.4 3-21.8 3.8-26.6l1.7.6c1.6 5.6 6.2 22.2 6.5 25.4.4 4.7 2.1 30.3 2.1 30.3 2.5 1.1 7.3 1.5 9-.3 0 .1.5-25.3-.2-35.6zm55.6-24.8c-3.8 0-7.7-.7-11.1-2.5-6.6-3.5-10.2-10.5-10.8-20.9-.3-5.5-2.2-9.4-5.8-11.7-6.5-4.2-16.2-1.6-16.3-1.5l-.4-1.2c.4-.1 10.5-2.8 17.5 1.7 3.9 2.5 6 6.8 6.4 12.6.6 10 3.9 16.7 10.1 19.9 11.7 6.2 29.8-2.3 30-2.3l.6 1.1c-.6.3-10.2 4.8-20.2 4.8z"/>
    <path class="st1" d="M104.6 308.6l.7 8.5s4.9-6.8 5.6-8.5c.7-1.7 2.1-6 2.2-6.4.1-.3 3.1-1.8 6.2-.8.8.3.2 2.7.1 2.7s1.3-.1 2.9.1c.5.1.6.9-1.7 1.4-1 .2-2.3 1.1-2.9 1.8-1.1 1.3-2.6 2.9-3 3.7-.3.7-2.3 10-7.9 15.1-1.6 1.4-4.3 1-5.3-.8-1.4-2.5-3-6.8-3.9-14l7-2.8z"/>
    <path class="st6" d="M329.4 407.3H160.1c-6 0-10.9-4.9-10.9-10.9V124.9c0-6 4.9-10.9 10.9-10.9h169.2c6 0 10.9 4.9 10.9 10.9v271.5c0 6-4.8 10.9-10.8 10.9z"/>
    <path class="st5" d="M318.9 383.6H170.6c-6.3 0-11.3-5.1-11.3-11.3V149c0-6.3 5.1-11.3 11.3-11.3h148.2c6.3 0 11.3 5.1 11.3 11.3v223.3c.1 6.3-5 11.3-11.2 11.3z"/>
    <path class="st7" d="M159.3 221.8h140.4v33.9H159.3z"/>
    <path class="st8" d="M323.7 305.3H322c-.2 0-.3-.1-.3-.3 0-.2.2-.3.3-.3h1v-1c0-.2.2-.3.3-.3.2 0 .3.1.3.3v1.6zm-7.3 0h-2.8c-.2 0-.3-.1-.3-.3 0-.2.2-.3.3-.3h2.8c.2 0 .3.1.3.3.1.1-.1.3-.3.3zm-8.3 0h-2.8c-.2 0-.3-.1-.3-.3 0-.2.2-.3.3-.3h2.8c.2 0 .3.1.3.3 0 .1-.1.3-.3.3zm-8.3 0H297c-.2 0-.3-.1-.3-.3 0-.2.2-.3.3-.3h2.8c.2 0 .3.1.3.3 0 .1-.1.3-.3.3zm-8.4 0h-2.8c-.2 0-.3-.1-.3-.3 0-.2.2-.3.3-.3h2.8c.2 0 .3.1.3.3.1.1-.1.3-.3.3zm-8.3 0h-2.8c-.2 0-.3-.1-.3-.3 0-.2.2-.3.3-.3h2.8c.2 0 .3.1.3.3.1.1-.1.3-.3.3zm-8.3 0H272c-.2 0-.3-.1-.3-.3 0-.2.2-.3.3-.3h2.8c.2 0 .3.1.3.3 0 .1-.1.3-.3.3zm-8.3 0h-2.8c-.2 0-.3-.1-.3-.3 0-.2.2-.3.3-.3h2.8c.2 0 .3.1.3.3 0 .1-.1.3-.3.3zm-8.4 0h-2.8c-.2 0-.3-.1-.3-.3 0-.2.2-.3.3-.3h2.8c.2 0 .3.1.3.3.1.1-.1.3-.3.3zm-8.3 0H247c-.2 0-.3-.1-.3-.3 0-.2.2-.3.3-.3h2.8c.2 0 .3.1.3.3.1.1-.1.3-.3.3zm-8.3 0h-2.8c-.2 0-.3-.1-.3-.3 0-.2.2-.3.3-.3h2.8c.2 0 .3.1.3.3 0 .1-.1.3-.3.3zm-8.3 0h-2.8c-.2 0-.3-.1-.3-.3 0-.2.2-.3.3-.3h2.8c.2 0 .3.1.3.3 0 .1-.2.3-.3.3zm-8.4 0H222c-.2 0-.3-.1-.3-.3 0-.2.2-.3.3-.3h2.8c.2 0 .3.1.3.3.1.1-.1.3-.3.3zm-8.3 0h-2.8c-.2 0-.3-.1-.3-.3 0-.2.2-.3.3-.3h2.8c.2 0 .3.1.3.3 0 .1-.1.3-.3.3zm-8.3 0h-2.8c-.2 0-.3-.1-.3-.3 0-.2.2-.3.3-.3h2.8c.2 0 .3.1.3.3 0 .1-.1.3-.3.3zm-8.4 0H197c-.2 0-.3-.1-.3-.3 0-.2.2-.3.3-.3h2.8c.2 0 .3.1.3.3.1.1-.1.3-.3.3zm-8.3 0h-2.8c-.2 0-.3-.1-.3-.3 0-.2.2-.3.3-.3h2.8c.2 0 .3.1.3.3.1.1-.1.3-.3.3zm-8.3 0h-2.8c-.2 0-.3-.1-.3-.3 0-.2.2-.3.3-.3h2.8c.2 0 .3.1.3.3 0 .1-.1.3-.3.3zm-8.3 0h-2.8c-.2 0-.3-.1-.3-.3 0-.2.2-.3.3-.3h2.8c.2 0 .3.1.3.3 0 .1-.1.3-.3.3zm-8.4 0h-1.7v-1.6c0-.2.2-.3.3-.3.2 0 .3.1.3.3v1h1c.2 0 .3.1.3.3.2.1 0 .3-.2.3zm-1.4-7c-.2 0-.3-.1-.3-.3v-2.9c0-.2.2-.3.3-.3.2 0 .3.1.3.3v2.9c.1.2-.1.3-.3.3zm0-8.6c-.2 0-.3-.1-.3-.3v-2.9c0-.2.2-.3.3-.3.2 0 .3.1.3.3v2.9c.1.2-.1.3-.3.3zm0-8.5c-.2 0-.3-.1-.3-.3V278c0-.2.2-.3.3-.3.2 0 .3.1.3.3v2.9c.1.1-.1.3-.3.3zm0-8.6c-.2 0-.3-.1-.3-.3v-1.6h1.7c.2 0 .3.1.3.3 0 .2-.2.3-.3.3h-1v1c0 .2-.2.3-.4.3zm151.3-1.3h-2.8c-.2 0-.3-.1-.3-.3 0-.2.2-.3.3-.3h2.8c.2 0 .3.1.3.3.1.2-.1.3-.3.3zm-8.3 0h-2.8c-.2 0-.3-.1-.3-.3 0-.2.2-.3.3-.3h2.8c.2 0 .3.1.3.3 0 .2-.1.3-.3.3zm-8.3 0H297c-.2 0-.3-.1-.3-.3 0-.2.2-.3.3-.3h2.8c.2 0 .3.1.3.3 0 .2-.1.3-.3.3zm-8.4 0h-2.8c-.2 0-.3-.1-.3-.3 0-.2.2-.3.3-.3h2.8c.2 0 .3.1.3.3.1.2-.1.3-.3.3zm-8.3 0h-2.8c-.2 0-.3-.1-.3-.3 0-.2.2-.3.3-.3h2.8c.2 0 .3.1.3.3.1.2-.1.3-.3.3zm-8.3 0H272c-.2 0-.3-.1-.3-.3 0-.2.2-.3.3-.3h2.8c.2 0 .3.1.3.3 0 .2-.1.3-.3.3zm-8.3 0h-2.8c-.2 0-.3-.1-.3-.3 0-.2.2-.3.3-.3h2.8c.2 0 .3.1.3.3 0 .2-.2.3-.3.3zm-8.4 0h-2.8c-.2 0-.3-.1-.3-.3 0-.2.2-.3.3-.3h2.8c.2 0 .3.1.3.3.1.2-.1.3-.3.3zm-8.3 0H247c-.2 0-.3-.1-.3-.3 0-.2.2-.3.3-.3h2.8c.2 0 .3.1.3.3.1.2-.1.3-.3.3zm-8.3 0h-2.8c-.2 0-.3-.1-.3-.3 0-.2.2-.3.3-.3h2.8c.2 0 .3.1.3.3 0 .2-.1.3-.3.3zm-8.4 0h-2.8c-.2 0-.3-.1-.3-.3 0-.2.2-.3.3-.3h2.8c.2 0 .3.1.3.3.1.2-.1.3-.3.3zm-8.3 0H222c-.2 0-.3-.1-.3-.3 0-.2.2-.3.3-.3h2.8c.2 0 .3.1.3.3.1.2-.1.3-.3.3zm-8.3 0h-2.8c-.2 0-.3-.1-.3-.3 0-.2.2-.3.3-.3h2.8c.2 0 .3.1.3.3 0 .2-.1.3-.3.3zm-8.3 0h-2.8c-.2 0-.3-.1-.3-.3 0-.2.2-.3.3-.3h2.8c.2 0 .3.1.3.3 0 .2-.1.3-.3.3zm-8.4 0H197c-.2 0-.3-.1-.3-.3 0-.2.2-.3.3-.3h2.8c.2 0 .3.1.3.3.1.2-.1.3-.3.3zm-8.3 0h-2.8c-.2 0-.3-.1-.3-.3 0-.2.2-.3.3-.3h2.8c.2 0 .3.1.3.3.1.2-.1.3-.3.3zm-8.3 0h-2.8c-.2 0-.3-.1-.3-.3 0-.2.2-.3.3-.3h2.8c.2 0 .3.1.3.3 0 .2-.1.3-.3.3zm-8.3 0h-2.8c-.2 0-.3-.1-.3-.3 0-.2.2-.3.3-.3h2.8c.2 0 .3.1.3.3 0 .2-.1.3-.3.3zm148.5 1.3c-.2 0-.3-.1-.3-.3v-1h-1c-.2 0-.3-.1-.3-.3 0-.2.2-.3.3-.3h1.7v1.6c-.1.2-.2.3-.4.3zm0 25.7c-.2 0-.3-.1-.3-.3v-2.9c0-.2.2-.3.3-.3.2 0 .3.1.3.3v2.9c0 .2-.1.3-.3.3zm0-8.6c-.2 0-.3-.1-.3-.3v-2.9c0-.2.2-.3.3-.3.2 0 .3.1.3.3v2.9c0 .2-.1.3-.3.3zm0-8.5c-.2 0-.3-.1-.3-.3V278c0-.2.2-.3.3-.3.2 0 .3.1.3.3v2.9c0 .1-.1.3-.3.3zm.3-29.5H322c-.2 0-.3-.1-.3-.3s.2-.3.3-.3h1v-1c0-.2.2-.3.3-.3.2 0 .3.1.3.3v1.6zm-7.3 0h-2.8c-.2 0-.3-.1-.3-.3s.2-.3.3-.3h2.8c.2 0 .3.1.3.3s-.1.3-.3.3zm-8.3 0h-2.8c-.2 0-.3-.1-.3-.3s.2-.3.3-.3h2.8c.2 0 .3.1.3.3s-.1.3-.3.3zm-8.3 0H297c-.2 0-.3-.1-.3-.3s.2-.3.3-.3h2.8c.2 0 .3.1.3.3s-.1.3-.3.3zm-8.4 0h-2.8c-.2 0-.3-.1-.3-.3s.2-.3.3-.3h2.8c.2 0 .3.1.3.3s-.1.3-.3.3zm-8.3 0h-2.8c-.2 0-.3-.1-.3-.3s.2-.3.3-.3h2.8c.2 0 .3.1.3.3s-.1.3-.3.3zm-8.3 0H272c-.2 0-.3-.1-.3-.3s.2-.3.3-.3h2.8c.2 0 .3.1.3.3s-.1.3-.3.3zm-8.3 0h-2.8c-.2 0-.3-.1-.3-.3s.2-.3.3-.3h2.8c.2 0 .3.1.3.3s-.1.3-.3.3zm-8.4 0h-2.8c-.2 0-.3-.1-.3-.3s.2-.3.3-.3h2.8c.2 0 .3.1.3.3s-.1.3-.3.3zm-8.3 0H247c-.2 0-.3-.1-.3-.3s.2-.3.3-.3h2.8c.2 0 .3.1.3.3s-.1.3-.3.3zm-8.3 0h-2.8c-.2 0-.3-.1-.3-.3s.2-.3.3-.3h2.8c.2 0 .3.1.3.3s-.1.3-.3.3zm-8.3 0h-2.8c-.2 0-.3-.1-.3-.3s.2-.3.3-.3h2.8c.2 0 .3.1.3.3s-.2.3-.3.3zm-8.4 0H222c-.2 0-.3-.1-.3-.3s.2-.3.3-.3h2.8c.2 0 .3.1.3.3s-.1.3-.3.3zm-8.3 0h-2.8c-.2 0-.3-.1-.3-.3s.2-.3.3-.3h2.8c.2 0 .3.1.3.3s-.1.3-.3.3zm-8.3 0h-2.8c-.2 0-.3-.1-.3-.3s.2-.3.3-.3h2.8c.2 0 .3.1.3.3s-.1.3-.3.3zm-8.4 0H197c-.2 0-.3-.1-.3-.3s.2-.3.3-.3h2.8c.2 0 .3.1.3.3s-.1.3-.3.3zm-8.3 0h-2.8c-.2 0-.3-.1-.3-.3s.2-.3.3-.3h2.8c.2 0 .3.1.3.3s-.1.3-.3.3zm-8.3 0h-2.8c-.2 0-.3-.1-.3-.3s.2-.3.3-.3h2.8c.2 0 .3.1.3.3s-.1.3-.3.3zm-8.3 0h-2.8c-.2 0-.3-.1-.3-.3s.2-.3.3-.3h2.8c.2 0 .3.1.3.3s-.1.3-.3.3zm-8.4 0h-1.7v-1.6c0-.2.2-.3.3-.3.2 0 .3.1.3.3v1h1c.2 0 .3.1.3.3s0 .3-.2.3zm-1.4-7c-.2 0-.3-.1-.3-.3v-2.9c0-.2.2-.3.3-.3.2 0 .3.1.3.3v2.9c.1.2-.1.3-.3.3zm0-8.5c-.2 0-.3-.1-.3-.3V233c0-.2.2-.3.3-.3.2 0 .3.1.3.3v2.9c.1.1-.1.3-.3.3zm0-8.6c-.2 0-.3-.1-.3-.3v-2.9c0-.2.2-.3.3-.3.2 0 .3.1.3.3v2.9c.1.1-.1.3-.3.3zm0-8.6c-.2 0-.3-.1-.3-.3v-1.6h1.7c.2 0 .3.1.3.3 0 .2-.2.3-.3.3h-1v1c0 .2-.2.3-.4.3zm151.3-1.2h-2.8c-.2 0-.3-.1-.3-.3 0-.2.2-.3.3-.3h2.8c.2 0 .3.1.3.3.1.1-.1.3-.3.3zm-8.3 0h-2.8c-.2 0-.3-.1-.3-.3 0-.2.2-.3.3-.3h2.8c.2 0 .3.1.3.3 0 .1-.1.3-.3.3zm-8.3 0H297c-.2 0-.3-.1-.3-.3 0-.2.2-.3.3-.3h2.8c.2 0 .3.1.3.3 0 .1-.1.3-.3.3zm-8.4 0h-2.8c-.2 0-.3-.1-.3-.3 0-.2.2-.3.3-.3h2.8c.2 0 .3.1.3.3.1.1-.1.3-.3.3zm-8.3 0h-2.8c-.2 0-.3-.1-.3-.3 0-.2.2-.3.3-.3h2.8c.2 0 .3.1.3.3.1.1-.1.3-.3.3zm-8.3 0H272c-.2 0-.3-.1-.3-.3 0-.2.2-.3.3-.3h2.8c.2 0 .3.1.3.3 0 .1-.1.3-.3.3zm-8.3 0h-2.8c-.2 0-.3-.1-.3-.3 0-.2.2-.3.3-.3h2.8c.2 0 .3.1.3.3 0 .1-.2.3-.3.3zm-8.4 0h-2.8c-.2 0-.3-.1-.3-.3 0-.2.2-.3.3-.3h2.8c.2 0 .3.1.3.3.1.1-.1.3-.3.3zm-8.3 0H247c-.2 0-.3-.1-.3-.3 0-.2.2-.3.3-.3h2.8c.2 0 .3.1.3.3.1.1-.1.3-.3.3zm-8.3 0h-2.8c-.2 0-.3-.1-.3-.3 0-.2.2-.3.3-.3h2.8c.2 0 .3.1.3.3 0 .1-.1.3-.3.3zm-8.4 0h-2.8c-.2 0-.3-.1-.3-.3 0-.2.2-.3.3-.3h2.8c.2 0 .3.1.3.3.1.1-.1.3-.3.3zm-8.3 0H222c-.2 0-.3-.1-.3-.3 0-.2.2-.3.3-.3h2.8c.2 0 .3.1.3.3.1.1-.1.3-.3.3zm-8.3 0h-2.8c-.2 0-.3-.1-.3-.3 0-.2.2-.3.3-.3h2.8c.2 0 .3.1.3.3 0 .1-.1.3-.3.3zm-8.3 0h-2.8c-.2 0-.3-.1-.3-.3 0-.2.2-.3.3-.3h2.8c.2 0 .3.1.3.3 0 .1-.1.3-.3.3zm-8.4 0H197c-.2 0-.3-.1-.3-.3 0-.2.2-.3.3-.3h2.8c.2 0 .3.1.3.3.1.1-.1.3-.3.3zm-8.3 0h-2.8c-.2 0-.3-.1-.3-.3 0-.2.2-.3.3-.3h2.8c.2 0 .3.1.3.3.1.1-.1.3-.3.3zm-8.3 0h-2.8c-.2 0-.3-.1-.3-.3 0-.2.2-.3.3-.3h2.8c.2 0 .3.1.3.3 0 .1-.1.3-.3.3zm-8.3 0h-2.8c-.2 0-.3-.1-.3-.3 0-.2.2-.3.3-.3h2.8c.2 0 .3.1.3.3 0 .1-.1.3-.3.3zm148.5 1.2c-.2 0-.3-.1-.3-.3v-1h-1c-.2 0-.3-.1-.3-.3 0-.2.2-.3.3-.3h1.7v1.6c-.1.2-.2.3-.4.3zm0 25.7c-.2 0-.3-.1-.3-.3v-2.9c0-.2.2-.3.3-.3.2 0 .3.1.3.3v2.9c0 .2-.1.3-.3.3zm0-8.5c-.2 0-.3-.1-.3-.3V233c0-.2.2-.3.3-.3.2 0 .3.1.3.3v2.9c0 .1-.1.3-.3.3zm0-8.6c-.2 0-.3-.1-.3-.3v-2.9c0-.2.2-.3.3-.3.2 0 .3.1.3.3v2.9c0 .1-.1.3-.3.3zm.3-29.5H322c-.2 0-.3-.1-.3-.3s.2-.3.3-.3h1v-1c0-.2.2-.3.3-.3.2 0 .3.1.3.3v1.6zm-7.3 0h-2.8c-.2 0-.3-.1-.3-.3s.2-.3.3-.3h2.8c.2 0 .3.1.3.3s-.1.3-.3.3zm-8.3 0h-2.8c-.2 0-.3-.1-.3-.3s.2-.3.3-.3h2.8c.2 0 .3.1.3.3s-.1.3-.3.3zm-8.3 0H297c-.2 0-.3-.1-.3-.3s.2-.3.3-.3h2.8c.2 0 .3.1.3.3s-.1.3-.3.3zm-8.4 0h-2.8c-.2 0-.3-.1-.3-.3s.2-.3.3-.3h2.8c.2 0 .3.1.3.3s-.1.3-.3.3zm-8.3 0h-2.8c-.2 0-.3-.1-.3-.3s.2-.3.3-.3h2.8c.2 0 .3.1.3.3s-.1.3-.3.3zm-8.3 0H272c-.2 0-.3-.1-.3-.3s.2-.3.3-.3h2.8c.2 0 .3.1.3.3s-.1.3-.3.3zm-8.3 0h-2.8c-.2 0-.3-.1-.3-.3s.2-.3.3-.3h2.8c.2 0 .3.1.3.3s-.1.3-.3.3zm-8.4 0h-2.8c-.2 0-.3-.1-.3-.3s.2-.3.3-.3h2.8c.2 0 .3.1.3.3s-.1.3-.3.3zm-8.3 0H247c-.2 0-.3-.1-.3-.3s.2-.3.3-.3h2.8c.2 0 .3.1.3.3s-.1.3-.3.3zm-8.3 0h-2.8c-.2 0-.3-.1-.3-.3s.2-.3.3-.3h2.8c.2 0 .3.1.3.3s-.1.3-.3.3zm-8.3 0h-2.8c-.2 0-.3-.1-.3-.3s.2-.3.3-.3h2.8c.2 0 .3.1.3.3s-.2.3-.3.3zm-8.4 0H222c-.2 0-.3-.1-.3-.3s.2-.3.3-.3h2.8c.2 0 .3.1.3.3s-.1.3-.3.3zm-8.3 0h-2.8c-.2 0-.3-.1-.3-.3s.2-.3.3-.3h2.8c.2 0 .3.1.3.3s-.1.3-.3.3zm-8.3 0h-2.8c-.2 0-.3-.1-.3-.3s.2-.3.3-.3h2.8c.2 0 .3.1.3.3s-.1.3-.3.3zm-8.4 0H197c-.2 0-.3-.1-.3-.3s.2-.3.3-.3h2.8c.2 0 .3.1.3.3s-.1.3-.3.3zm-8.3 0h-2.8c-.2 0-.3-.1-.3-.3s.2-.3.3-.3h2.8c.2 0 .3.1.3.3s-.1.3-.3.3zm-8.3 0h-2.8c-.2 0-.3-.1-.3-.3s.2-.3.3-.3h2.8c.2 0 .3.1.3.3s-.1.3-.3.3zm-8.3 0h-2.8c-.2 0-.3-.1-.3-.3s.2-.3.3-.3h2.8c.2 0 .3.1.3.3s-.1.3-.3.3zm-8.4 0h-1.7v-1.6c0-.2.2-.3.3-.3.2 0 .3.1.3.3v1h1c.2 0 .3.1.3.3s0 .3-.2.3zm-1.4-7c-.2 0-.3-.1-.3-.3V188c0-.2.2-.3.3-.3.2 0 .3.1.3.3v2.9c.1.1-.1.2-.3.2zm0-8.5c-.2 0-.3-.1-.3-.3v-2.9c0-.2.2-.3.3-.3.2 0 .3.1.3.3v2.9c.1.1-.1.3-.3.3zm0-8.6c-.2 0-.3-.1-.3-.3v-2.9c0-.2.2-.3.3-.3.2 0 .3.1.3.3v2.9c.1.2-.1.3-.3.3zm0-8.6c-.2 0-.3-.1-.3-.3v-1.6h1.7c.2 0 .3.1.3.3 0 .2-.2.3-.3.3h-1v1c0 .2-.2.3-.4.3zm151.3-1.2h-2.8c-.2 0-.3-.1-.3-.3 0-.2.2-.3.3-.3h2.8c.2 0 .3.1.3.3.1.1-.1.3-.3.3zm-8.3 0h-2.8c-.2 0-.3-.1-.3-.3 0-.2.2-.3.3-.3h2.8c.2 0 .3.1.3.3 0 .1-.1.3-.3.3zm-8.3 0H297c-.2 0-.3-.1-.3-.3 0-.2.2-.3.3-.3h2.8c.2 0 .3.1.3.3 0 .1-.1.3-.3.3zm-8.4 0h-2.8c-.2 0-.3-.1-.3-.3 0-.2.2-.3.3-.3h2.8c.2 0 .3.1.3.3.1.1-.1.3-.3.3zm-8.3 0h-2.8c-.2 0-.3-.1-.3-.3 0-.2.2-.3.3-.3h2.8c.2 0 .3.1.3.3.1.1-.1.3-.3.3zm-8.3 0H272c-.2 0-.3-.1-.3-.3 0-.2.2-.3.3-.3h2.8c.2 0 .3.1.3.3 0 .1-.1.3-.3.3zm-8.3 0h-2.8c-.2 0-.3-.1-.3-.3 0-.2.2-.3.3-.3h2.8c.2 0 .3.1.3.3 0 .1-.2.3-.3.3zm-8.4 0h-2.8c-.2 0-.3-.1-.3-.3 0-.2.2-.3.3-.3h2.8c.2 0 .3.1.3.3.1.1-.1.3-.3.3zm-8.3 0H247c-.2 0-.3-.1-.3-.3 0-.2.2-.3.3-.3h2.8c.2 0 .3.1.3.3.1.1-.1.3-.3.3zm-8.3 0h-2.8c-.2 0-.3-.1-.3-.3 0-.2.2-.3.3-.3h2.8c.2 0 .3.1.3.3 0 .1-.1.3-.3.3zm-8.4 0h-2.8c-.2 0-.3-.1-.3-.3 0-.2.2-.3.3-.3h2.8c.2 0 .3.1.3.3.1.1-.1.3-.3.3zm-8.3 0H222c-.2 0-.3-.1-.3-.3 0-.2.2-.3.3-.3h2.8c.2 0 .3.1.3.3.1.1-.1.3-.3.3zm-8.3 0h-2.8c-.2 0-.3-.1-.3-.3 0-.2.2-.3.3-.3h2.8c.2 0 .3.1.3.3 0 .1-.1.3-.3.3zm-8.3 0h-2.8c-.2 0-.3-.1-.3-.3 0-.2.2-.3.3-.3h2.8c.2 0 .3.1.3.3 0 .1-.1.3-.3.3zm-8.4 0H197c-.2 0-.3-.1-.3-.3 0-.2.2-.3.3-.3h2.8c.2 0 .3.1.3.3.1.1-.1.3-.3.3zm-8.3 0h-2.8c-.2 0-.3-.1-.3-.3 0-.2.2-.3.3-.3h2.8c.2 0 .3.1.3.3.1.1-.1.3-.3.3zm-8.3 0h-2.8c-.2 0-.3-.1-.3-.3 0-.2.2-.3.3-.3h2.8c.2 0 .3.1.3.3 0 .1-.1.3-.3.3zm-8.3 0h-2.8c-.2 0-.3-.1-.3-.3 0-.2.2-.3.3-.3h2.8c.2 0 .3.1.3.3 0 .1-.1.3-.3.3zm148.5 1.2c-.2 0-.3-.1-.3-.3v-1h-1c-.2 0-.3-.1-.3-.3 0-.2.2-.3.3-.3h1.7v1.6c-.1.2-.2.3-.4.3zm0 25.7c-.2 0-.3-.1-.3-.3V188c0-.2.2-.3.3-.3.2 0 .3.1.3.3v2.9c0 .1-.1.2-.3.2zm0-8.5c-.2 0-.3-.1-.3-.3v-2.9c0-.2.2-.3.3-.3.2 0 .3.1.3.3v2.9c0 .1-.1.3-.3.3zm0-8.6c-.2 0-.3-.1-.3-.3v-2.9c0-.2.2-.3.3-.3.2 0 .3.1.3.3v2.9c0 .2-.1.3-.3.3z"/>
    <path class="st5" d="M294 129.8h-98.4c-1.6 0-2.9-1.2-2.9-2.6 0-1.4 1.3-2.6 2.9-2.6H294c1.6 0 2.9 1.2 2.9 2.6-.1 1.5-1.4 2.6-2.9 2.6zm-85.8 269.3H180c-2 0-3.5-1.6-3.5-3.5 0-2 1.6-3.5 3.5-3.5h28.2c2 0 3.5 1.6 3.5 3.5s-1.6 3.5-3.5 3.5zm101.3 0h-28.2c-2 0-3.5-1.6-3.5-3.5 0-2 1.6-3.5 3.5-3.5h28.2c2 0 3.5 1.6 3.5 3.5s-1.6 3.5-3.5 3.5z"/>
	<g id="anchor">
		<path class="st1" d="M333.5 156.1L284 106.5c2-1.2 3.4-3.4 3.4-5.8 0-3.4-2.6-6.2-6.1-6.8v-2.6H293V67.1h-11.8v-5.5c3.5-.6 6.1-3.4 6.1-6.8s-2.6-6.2-6.1-6.8V0h-2.8v48c-3.5.6-6.1 3.4-6.1 6.8s2.6 6.2 6.1 6.8v5.5h-11.8v24.3h11.8v5h1.4c2.6 0 4.7 1.9 4.7 4.3 0 1.7-1 3.1-2.5 3.8l-1.9-1.9-2.1 2.1c-1.8-.6-3-2.2-3-4h-2.8c0 2.6 1.5 4.8 3.8 6l-49 49.4 1.2 1 49.6-49.8c.7.2 1.4.3 2.1.3.9 0 1.8-.2 2.6-.4l49.8 49.9 1.2-1zM275.1 54.8c0-1.9 1.4-3.6 3.3-4.1v.3h2.8v-.3c1.9.5 3.3 2.2 3.3 4.1 0 2-1.4 3.6-3.3 4.1v-.3h-2.8v.4c-1.8-.6-3.3-2.2-3.3-4.2zm5 50.3l.1-.1.1.1h-.2z"/>
    	<path class="st7" d="M208.2 162.8h122v33.9h-122z"/>
		<path class="st8" d="M200.8 154.2H359v33.9H200.8z"/>
   	 	<path class="st1" d="M211.7 161.4h21.2v19.4h-21.2zm29.9 0h109.3v3.8H241.6zm0 15.6h109.3v3.8H241.6z"/>
	</g>
    <path class="st9" d="M343 297.4c-2.2.3-4.1 1.7-4.8 3.7l-7.4 20.5h-29.4v5.2h27.5l-3.7 10.2h-30.6v5.2h28.7l-3.7 10.2h-31.8v5.2h29.9l-3.7 10.2h-31.8v5.2H312l-3.7 10.2h-31.8v5.2h30l-3.7 10.2h-31.9v5.2h30l-1.2 3.2h5.9l23.6-65h.6v-1.7l5-13.8h1.8v-5l6.5-17.9v-6.2z"/>
    <path class="st1" d="M393.8 407.3l-44.4-106.4c-.8-2-2.8-3.3-5.1-3.5v5.5l7.8 18.7h-30v5.2h32.2l4.3 10.2h-29.7v5.2h31.9l4.3 10.2h-29.4v5.2h31.5l4.3 10.2H341v5.2h32.7l4.3 10.2h-30.1v5.2H380l4.3 10.2h-29.9v5.2h32.1l1.3 3.2h6z"/>
    <ellipse class="st9" cx="343.3" cy="301" rx="3" ry="5.3"/>
    <path class="st8" d="M135.1 214h158.2v33.9H135.1z"/>
    <path class="st1" d="M146 221.3h21.2v19.4H146zm30 0h109.3v3.8H176zm0 15.6h109.3v3.8H176zM30 407.3H5.4l12.3-38z"/>
    <path class="st1" d="M.8 404.6h33.9v2.7H.8z"/>
    <path class="st10" d="M6.2 404.6h22.9L27 398H8.4zm17.4-16.9l-.9-2.8H12.6l-1.2 3.6-.9 3h14.3z"/>
    <path class="st8" d="M229.7 363.1v-5.4h.7v4.8h1.7v.5h-2.4zm4.4-4.1c0-.8.4-1.3 1.3-1.3s1.3.5 1.3 1.3v2.8c0 .8-.4 1.3-1.3 1.3s-1.3-.5-1.3-1.3V359zm.7 2.8c0 .5.2.8.7.8.5 0 .7-.3.7-.8V359c0-.5-.2-.8-.7-.8-.5 0-.7.3-.7.8v2.8zm4.9.2l-.2 1.1h-.6l1.1-5.4h.9l1.1 5.4h-.7l-.2-1.1h-1.4zm.1-.5h1.3l-.7-3.1-.6 3.1zm5.8-3.8c.9 0 1.3.5 1.3 1.3v2.7c0 .8-.4 1.3-1.3 1.3h-1.4v-5.4h1.4zm0 4.8c.5 0 .7-.3.7-.8V359c0-.5-.2-.8-.7-.8h-.7v4.3h.7zm4.3-4.8v5.4h-.7v-5.4h.7zm2.9 5.4h-.6v-5.4h.8l1.3 3.9v-3.9h.6v5.4h-.7l-1.5-4.3v4.3zm7.1-4.1v.5h-.6v-.5c0-.5-.2-.8-.7-.8-.5 0-.7.3-.7.8v2.8c0 .5.2.8.7.8.5 0 .7-.3.7-.8v-1.1h-.6v-.5h1.2v1.6c0 .8-.4 1.3-1.3 1.3s-1.3-.5-1.3-1.3V359c0-.8.4-1.3 1.3-1.3.8 0 1.3.5 1.3 1.3z"/>
	<g id="loader">
		<ellipse class="st8" cx="246.4" cy="321.9" rx="1.4" ry="1.2"/>
		<ellipse class="st6" cx="246.4" cy="346.2" rx="1.4" ry="1.2"/>
		<path class="st11" d="M242.3 323.8c.7-.2 1.1-.9.8-1.6-.3-.6-1-1-1.7-.7-.7.2-1.1.9-.8 1.6.2.6 1 .9 1.7.7z"/>
		<path class="st6" d="M250.4 344.3c-.7.2-1.1.9-.8 1.6.3.6 1 1 1.7.7.7-.2 1.1-.9.8-1.6-.2-.6-1-.9-1.7-.7z"/>
		<path class="st12" d="M238.7 325.7c.6-.4.6-1.2.2-1.7-.5-.5-1.3-.6-1.9-.2-.6.4-.6 1.2-.2 1.7.5.6 1.3.6 1.9.2z"/>
		<path class="st6" d="M254 342.4c-.6.4-.6 1.2-.2 1.7.5.5 1.3.6 1.9.2.6-.4.6-1.2.2-1.7-.5-.6-1.3-.6-1.9-.2z"/>
		<path class="st13" d="M236 328.6c.4-.6.2-1.4-.5-1.7-.6-.3-1.5-.1-1.8.5-.4.6-.2 1.4.5 1.7.6.3 1.5.1 1.8-.5z"/>
		<path class="st6" d="M256.7 339.5c-.4.6-.2 1.4.5 1.7.6.3 1.5.1 1.8-.5.4-.6.2-1.4-.5-1.7-.6-.3-1.5-.1-1.8.5zm-22.1-7.4c.1-.7-.4-1.3-1.1-1.4-.7-.1-1.4.3-1.6 1-.1.7.4 1.3 1.1 1.4.8.2 1.5-.3 1.6-1zm23.5 3.8c-.1.7.4 1.3 1.1 1.4.7.1 1.4-.3 1.6-1s-.4-1.3-1.1-1.4c-.8-.1-1.5.4-1.6 1zm-23.5 0c-.1-.7-.8-1.1-1.6-1-.7.1-1.2.8-1.1 1.4.1.7.8 1.1 1.6 1 .8 0 1.3-.7 1.1-1.4zm23.5-3.8c.1.7.8 1.1 1.6 1 .7-.1 1.2-.8 1.1-1.4-.1-.7-.8-1.1-1.6-1-.8.1-1.3.8-1.1 1.4zm-22.1 7.4c-.4-.6-1.2-.8-1.8-.5-.6.3-.9 1.1-.5 1.7s1.2.8 1.8.5c.7-.3.9-1.1.5-1.7zm20.7-10.9c.4.6 1.2.8 1.8.5.6-.3.9-1.1.5-1.7-.4-.6-1.2-.8-1.8-.5-.7.3-.9 1.1-.5 1.7zm-18 13.8c-.6-.4-1.4-.4-1.9.2-.5.5-.4 1.3.2 1.7.6.4 1.4.4 1.9-.2.5-.5.4-1.3-.2-1.7zm15.3-16.7c.6.4 1.4.4 1.9-.2.5-.5.4-1.3-.2-1.7-.6-.4-1.4-.4-1.9.2s-.4 1.2.2 1.7zm-11.7 18.6c-.7-.2-1.5.1-1.7.7-.3.6.1 1.4.8 1.6.7.2 1.5-.1 1.7-.7.2-.6-.1-1.4-.8-1.6zm8.1-20.5c.7.2 1.5-.1 1.7-.7.3-.6-.1-1.4-.8-1.6-.7-.2-1.5.1-1.7.7-.2.6.1 1.4.8 1.6z"/>
	</g>
	<path class="st14" d="M75.9 290.8s-9.9 4.3-11.4 5.6c-1.5 1.2-3.9 16.3-3.9 16.3 2.1 2 4.9 3.5 8.2 3.3l.8-4s1.2 8.6 0 12c-1.2 3.4-2.9 11.9-2.9 11.9s11.5 5.8 27 .4c0 0 2.7-23.4 1.7-28.9 1 3.9 1.2 5.4 2 8.5 2.7.4 6.3-1.5 8.2-4.5 0 0-3.1-16.1-7.2-18.6-3.3-1.9-13.7-3.9-13.7-3.9l-8.8 1.9z"/>
    <path class="st1" d="M88.4 277.3c0 1.8-1.6 3.7-2.3 5.3-1.4 3.1-3.8 5.4-6.6 5.4-1.8 0-3.6-1.1-5-2.9-1.8-2.1-1.9-5.2-1.9-8.1 0-5.2 2-8.7 7.1-8.7 4 0 8.7 2.3 8.7 9z"/>
    <path class="st1" d="M85.3 292.7c-2.9 1.6-6.6 1.8-8.7.7-.6-.3-.8-.9-.7-1.4.3-2.5.3-5.2-.1-8.1l8.7-.6c.3 2.8.7 4.7 1.8 6.6.5 1 0 2.2-1 2.8z"/>
    <path class="st5" d="M69 310.4l-9-1.3c-2.2-.3-3.7-2.2-3.4-4.2.3-2 2.4-3.4 4.6-3.1l9 1.3-1.2 7.3zm29.2-7.1l8.9-2c2.2-.5 4.3.7 4.9 2.7.5 2-.8 4-2.9 4.5l-8.9 2-2-7.2z"/>
    <path class="st5" d="M93.9 307.4l-.4-1.2 5.4-1.4.4 1.2zm1 2.6l-.4-1.3 5.4-1.4.4 1.2z"/>
    <path class="st1" d="M89.9 405.5c.2-.4.8-.7 1.3-.7 1.5.1 4.8.6 6.8-.8.8-.6 1.9-.7 3-.6 3.1.5 8.7 1.5 9.5 5.8 0 0-6.7.8-11.4.1-3.8-.6-9.5-1.8-9.5-1.8 0-.6-.1-1.2.3-2z"/>
    <path class="st9" d="M76 288.6c.9.5 1.8.8 2.7.8 2.4 0 4.5-1.8 5.9-4.3-1.4 1.8-3.2 3-5.1 3-1.3 0-2.5-.5-3.6-1.4.1.5.1 1.2.1 1.9z"/>
    <path class="st2" d="M88.7 279h-2.2c-.8 0-1.4-.6-1.4-1.4v-4.3h3.6v5.7z"/>
    <path class="st1" d="M88.7 279.4c-.1 1.4-.9 2.5-1.7 2.4-.8-.1-1.1-1.2-1-2.7.1-1.4.9-2.5 1.7-2.5.8.1 1.1 1.3 1 2.8z"/>
    <path class="st2" d="M88.1 275.6H77.5c-2.5 0-4.5-1.8-4.5-4.1 0-1.9 1.7-3.5 3.8-3.5h7.8c1.9 0 3.5 1.4 3.5 3.2v4.4z"/>
    <path class="st1" d="M326 241.2c-2.6-1-6.2-1.6-10.7-2.6-1.8-1.9-8.7-7.9-13.9-12.8-.7-.7-1.3-2.2-1.4-3.1-.3-2.3-.5-6.1-1.2-5.8-.7.3-.9 2.2-1 2.9 0 .3-.4.5-.7.4-.3-.1-.6-.3-1-.5 0 0-4.7-2.6-5.2-2-.2.3 1.9 2 2.8 2.6-.1.1-.1.2-.2.3-1.5-.5-4.1-1.3-4.3-.8-.2.4 3.1 2 3.8 2.3 0 .1-.1.2-.1.4-1.6-.4-3.9-.9-4-.4-.1.4 2.9 1.6 3.9 2v.3c-1.5-.1-3.1-.1-3.2.2 0 .3 3.2.9 4.1 1.1.1 0 .1.1.2.1l3.8 1.5s7.6 14.2 13.9 16.8l15.4 4.5-1-7.4zm16.4-29.9c3-.6 8.8.9 8.9 6s-.6 13.1-5.7 14.4c-2.8.7-6.3 0-7.9-2.1-1.2-1.6-1.6-4.5-1.9-5.6-.9-4.2-2.6-11 6.6-12.7z"/>
    <path class="st1" d="M341.4 228.6l-2 7.1s2.3 2.3 5.2 2.1c2.9-.2 7.2-3 7.2-3s-3.1-3.5-3.1-6.1l-7.3-.1z"/>
    <path class="st2" d="M333.7 218.5s-.5-8.7 9.3-7.8c1.8.2 4.6.4 6.1 1 4 1.7 4.3 4.3 3.9 8.4-.5 5.3-4.3 9.1-3.1 10.5h-4.4c-1.7 0-3.3-1-3.8-2.5-.4-1.4-.6-2.8-.3-4.3 0-.5.5-4.6-2.6-3.7-3 1-5.1-1.6-5.1-1.6z"/>
    <ellipse class="st1" cx="340.4" cy="222" rx="1.9" ry="2.5"/>
    <path class="st1" d="M335.7 222.5l-.7 2.5c-.1.4.2.7.6.7l2.3.1-2.2-3.3zm27.3 65.4l-.8-4.1s9.8-15 8.6-22l-4.7-15.9-6.8 5.4c.6 2.8 2.1 6.3 3.8 10.7-.8 2.7-2.7 12.1-4.6 19.6-.3 1-1.5 2.4-2.3 3.1-2.2 1.6-5.9 4.1-5.2 4.5.8.4 2.8-.5 3.5-.9.4-.2.8 0 .8.4 0 .3.1.7.1 1.1 0 0 .2 5.6 1.1 5.6.5 0 .8-2.8.9-4h.4c.4 1.6 1.1 4.3 1.7 4.2.5-.1.2-3.8.1-4.6.1 0 .3-.1.4-.1.6 1.6 1.5 3.8 2 3.7.5-.1-.1-3.4-.3-4.5 0 0 .1 0 .1-.1.1 0 .1-.1.2-.2.8 1.3 1.8 2.7 2.1 2.5.3-.2-1-3.3-1.4-4.1.3-.2.3-.3.3-.3z"/>
    <path class="st4" d="M311.5 318.6c1.8 1.1 3.9 2 7.5 1.5.5-1.3.4-3 0-4.9h-7c1.2 1.3.7 2.7-.5 3.4z"/>
    <path class="st1" d="M321 319.8c-.2-.5-.8-.7-1.3-.7-1.5.1-4.9.6-6.9-.8-.9-.6-2-.8-3-.6-3.2.5-8.9 1.5-9.7 6 0 0 6.7-.1 11.5-.4 5.1-.3 9.8-1.3 9.8-1.3-.1-.7 0-1.4-.4-2.2z"/>
    <path class="st15" d="M331.5 276.5c-13.9-3-20.9-4.8-20.9 7 0 10.5.5 31.6.5 31.6.9 1.3 6.8 2 8.4 1.4 0 0 1.9-20.6 2.5-29.3 10.3.6 24.4 4.7 24.4 4.7l-14.9-15.4z"/>
    <path class="st4" d="M353.2 349.4l8.4 1.6c.8-1.4.6-3.1 0-4.9h-7c.4 1.4.6 2.4-1.4 3.3z"/>
    <path class="st15" d="M355.9 276.5c5.8 22.4 3.8 23.2 4.6 35 .6 10.5 2.4 35.4 2.4 35.4-1.7 1.8-6.6 1.5-9.1.3 0 0-3.9-25.1-4.4-29.9-.4-4-5.8-30-5.8-30l12.3-10.8z"/>
    <path class="st15" d="M332.4 277l.1-2.2 22.7-1.3v4.5l-10.7 12.5-3.6-1.2z"/>
    <path class="st1" d="M363 350.7c-.2-.5-.8-.7-1.3-.7-1.5.1-4.9.6-6.9-.8-.9-.6-2-.8-3-.6-3.2.5-8.9 1.5-9.7 6 0 0 6.1 0 11.7-.4 3.9-.3 9.5-1.3 9.5-1.3 0-.7.1-1.4-.3-2.2z"/>
    <path class="st14" d="M360.8 235.7c-.5-.3-1.2-.6-2-.8-.7-.2-1.4-.4-2.2-.6-5.3-1.2-10.9-1.3-16.4-.6l-1.7.2s-4.1 1.8-7.5 3.4v.1c-3.9 2.4-9 2.6-14.7.2-1.2 2.6-2.2 7-.6 9.8 6.3 2.5 12.5 3 16.2 1.3h.1c.4 4.4.9 8.3.9 8.1.1 1.6 1.2 6.7.9 11.7-.2 3.6-2.2 7.8-2.2 7.8s11.3 14.9 26.9 10.6c0 0 1.8-22.8.4-35.1.9 3 1.2 4.5 2 7.3 2.7.3 6.3-1.7 8.1-4.8 0 .1-3.8-16.2-8.2-18.6z"/>
	<path class="st9" d="M272.5 407.3l37.9-104.5s0-.1.1-.2v-5.2c-2.5.1-4.6 1.5-5.4 3.7l-38.5 106.1h5.9z"/> -->
	<path class="st1" d="M360.8 407.3l-44.4-106.4c-.8-1.9-2.5-3.1-4.6-3.4v6.7l43.1 103.1h5.9z"/>
	<ellipse class="st9" cx="311" cy="301.4" rx="3" ry="5.3"/>
  </g>
</svg>